<svg xmlns="http://www.w3.org/2000/svg" width="24" height="24" viewBox="0 0 24 24">
  <g id="Group_55803" data-name="Group 55803" transform="translate(3906 -2246)">
    <g id="Group_55507" data-name="Group 55507" transform="translate(-3904 2248)">
      <path id="Path_44515" data-name="Path 44515" d="M316.02,236.938c0,1.429,0,2.859,0,4.288a1.478,1.478,0,0,1-1.6,1.612q-3.057.008-6.115,0a1.466,1.466,0,0,1-1.6-1.608q-.006-4.328,0-8.656a1.475,1.475,0,0,1,1.617-1.6q3.038,0,6.075,0a1.5,1.5,0,0,1,1.625,1.632Q316.023,234.774,316.02,236.938Z" transform="translate(-295.676 -230.976)" fill="#fff"/>
      <path id="Path_44516" data-name="Path 44516" d="M177.3,343.633c0,1.416,0,2.832,0,4.249a1.5,1.5,0,0,1-1.66,1.673q-3.018,0-6.035,0a1.494,1.494,0,0,1-1.622-1.635q0-4.308,0-8.616a1.478,1.478,0,0,1,1.6-1.609q3.057-.008,6.115,0a1.466,1.466,0,0,1,1.6,1.611C177.3,340.748,177.3,342.19,177.3,343.633Z" transform="translate(-167.98 -329.211)" fill="#fff"/>
      <path id="Path_44517" data-name="Path 44517" d="M172.646,237.752c-1.006,0-2.011,0-3.017,0a1.49,1.49,0,0,1-1.655-1.639q0-1.767,0-3.533a1.49,1.49,0,0,1,1.613-1.6q3.057,0,6.114,0a1.471,1.471,0,0,1,1.59,1.582q.011,1.806,0,3.613a1.464,1.464,0,0,1-1.589,1.58C174.684,237.757,173.665,237.752,172.646,237.752Z" transform="translate(-167.973 -230.974)" fill="#fff"/>
      <path id="Path_44518" data-name="Path 44518" d="M311.331,401.688c1.019,0,2.038,0,3.057,0a1.479,1.479,0,0,1,1.6,1.613q0,1.786,0,3.573a1.486,1.486,0,0,1-1.588,1.589q-3.077.005-6.153,0a1.469,1.469,0,0,1-1.574-1.557q-.013-1.846,0-3.692a1.449,1.449,0,0,1,1.523-1.523C309.24,401.68,310.285,401.688,311.331,401.688Z" transform="translate(-295.644 -388.121)" fill="#fff"/>
    </g>
    <rect id="Rectangle_14308" data-name="Rectangle 14308" width="24" height="24" transform="translate(-3906 2246)" fill="none"/>
  </g>
</svg>
