<svg xmlns="http://www.w3.org/2000/svg" width="48" height="48" viewBox="0 0 48 48">
  <g id="Group_56332" data-name="Group 56332" transform="translate(-332 -112)">
    <g id="Group_56330" data-name="Group 56330">
      <g id="Group_56331" data-name="Group 56331">
        <rect id="Rectangle_14167" data-name="Rectangle 14167" width="48" height="48" rx="12" transform="translate(332 112)" fill="#eee"/>
      </g>
    </g>
    <g id="drive_file_rename_outline_black_24dp" transform="translate(342 122)">
      <g id="Group_54726" data-name="Group 54726">
        <rect id="Rectangle_14342" data-name="Rectangle 14342" width="28" height="28" fill="none"/>
      </g>
      <g id="Group_54728" data-name="Group 54728" transform="translate(3.5 4.664)">
        <g id="Group_54727" data-name="Group 54727">
          <path id="Path_44248" data-name="Path 44248" d="M15.667,16,11,20.667h9.333a2.34,2.34,0,0,0,2.333-2.333h0A2.34,2.34,0,0,0,20.333,16Z" transform="translate(-1.667 -1.997)" fill="#0e8248"/>
          <path id="Path_44249" data-name="Path 44249" d="M13.57,7.19,3.338,17.422A1.177,1.177,0,0,0,3,18.238v2.73a1.17,1.17,0,0,0,1.167,1.167H6.9a1.2,1.2,0,0,0,.828-.338L17.957,11.565Z" transform="translate(-3 -3.465)" fill="#0e8248"/>
          <path id="Path_44250" data-name="Path 44250" d="M19.64,8.714a1.162,1.162,0,0,0,0-1.645l-2.73-2.73a1.162,1.162,0,0,0-1.645,0L13.13,6.474,17.5,10.849Z" transform="translate(-1.312 -3.998)" fill="#0e8248"/>
        </g>
      </g>
    </g>
  </g>
</svg>
