<svg xmlns="http://www.w3.org/2000/svg" width="24" height="24" viewBox="0 0 24 24">
  <g id="Group_54605" data-name="Group 54605" transform="translate(-1694 -610)">
    <g id="print_black_24dp" transform="translate(1694 610)">
      <path id="Path_44044" data-name="Path 44044" d="M0,0H24V24H0Z" fill="none"/>
      <path id="Path_44045" data-name="Path 44045" d="M19,8H5a3,3,0,0,0-3,3v6H6v4H18V17h4V11A3,3,0,0,0,19,8ZM16,19H8V14h8Zm3-7a1,1,0,1,1,1-1A1,1,0,0,1,19,12ZM18,3H6V7H18Z" fill="#0779e4"/>
    </g>
  </g>
</svg>
