<svg xmlns="http://www.w3.org/2000/svg" width="46" height="46" viewBox="0 0 46 46">
  <g id="Group_56331" data-name="Group 56331" transform="translate(-3652 2006)">
    <g id="Group_56330" data-name="Group 56330">
      <path id="Rectangle_14459" data-name="Rectangle 14459" d="M0,0H42a4,4,0,0,1,4,4V42a4,4,0,0,1-4,4H0a0,0,0,0,1,0,0V0A0,0,0,0,1,0,0Z" transform="translate(3652 -2006)" fill="#eef1f5"/>
      <g id="not_approval_black_24dp-01" transform="translate(3663 -1996)">
        <g id="Group_54763" data-name="Group 54763">
          <rect id="Rectangle_14393" data-name="Rectangle 14393" width="24" height="24" fill="none"/>
        </g>
        <g id="Group_54764" data-name="Group 54764">
          <path id="Path_44268" data-name="Path 44268" d="M12,4a2.946,2.946,0,0,1,3,3l-2.2,3L14,11.2,17,7a4.951,4.951,0,0,0-5-5A4.751,4.751,0,0,0,7.6,4.8L9.1,6.3A3,3,0,0,1,12,4Z" fill="#9e9e99"/>
          <path id="Path_44269" data-name="Path 44269" d="M20,17.2V16a2.006,2.006,0,0,0-2-2H16.8Z" fill="#9e9e99"/>
          <path id="Path_44270" data-name="Path 44270" d="M21.2,21.2,2.8,2.8,1.4,4.2,11.2,14H6a2.006,2.006,0,0,0-2,2v6H19.2l.6.6ZM6,18V16h7.2l2,2Z" fill="#9e9e99"/>
        </g>
      </g>
    </g>
  </g>
</svg>
