<svg xmlns="http://www.w3.org/2000/svg" width="24" height="24" viewBox="0 0 24 24">
  <g id="Group_55784" data-name="Group 55784" transform="translate(21548 10983)">
    <rect id="Rectangle_14569" data-name="Rectangle 14569" width="24" height="24" transform="translate(-21548 -10983)" fill="none"/>
    <path id="Subtraction_2" data-name="Subtraction 2" d="M11.105,22h0a25.677,25.677,0,0,1-3.426-.238,12.685,12.685,0,0,1-4.5-1.317,3.778,3.778,0,0,1-1.654-1.626,7.421,7.421,0,0,1-1.033-2.7A22.757,22.757,0,0,1,.819,5.377a6.234,6.234,0,0,1,5.1-4.79A23.112,23.112,0,0,1,11.034,0a21.887,21.887,0,0,1,2.517.146,17.592,17.592,0,0,1,3.315.677l.077.024a.8.8,0,0,1,.348.169A5.2,5.2,0,0,1,20.819,4.37,18.788,18.788,0,0,1,21.9,9.426a20.914,20.914,0,0,1-.5,7.152,7.222,7.222,0,0,1-1.245,2.757,5.833,5.833,0,0,1-3.169,1.86A21.42,21.42,0,0,1,11.105,22ZM6.353,14.121h0L4.928,16.589a.469.469,0,0,0,.176.643l1.4.787a.468.468,0,0,0,.635-.175l2.081-3.6h-2.2l-.029,0a2.64,2.64,0,0,1-.641-.119ZM15.18,3.736a.467.467,0,0,0-.243.069L10.7,6.4v7.464l4.239,2.519a.458.458,0,0,0,.238.067.47.47,0,0,0,.47-.47V4.2a.462.462,0,0,0-.143-.337A.478.478,0,0,0,15.18,3.736Zm1.583,8.3a.468.468,0,0,0-.331.8l.945.945a.469.469,0,0,0,.663-.662l-.946-.945A.465.465,0,0,0,16.763,12.033Zm-9.8-5.064a1.524,1.524,0,0,0-1.5,1.543v3.147A1.674,1.674,0,0,0,7.051,13.3H9.766V6.971H7.051ZM3.894,7.986A.891.891,0,0,0,3,8.875v2.419a.891.891,0,0,0,.89.89h.681a2.548,2.548,0,0,1-.056-.526V8.511a2.531,2.531,0,0,1,.056-.526Zm13.3,1.708a.468.468,0,1,0,0,.937h1.337a.468.468,0,1,0,0-.937Zm.516-3.284a.467.467,0,0,0-.332.137l-.945.946a.468.468,0,1,0,.662.662l.946-.945a.469.469,0,0,0-.332-.8Z" transform="translate(-21547 -10982)" fill="#fff" stroke="rgba(0,0,0,0)" stroke-miterlimit="10" stroke-width="1"/>
  </g>
</svg>
