<svg xmlns="http://www.w3.org/2000/svg" width="24" height="24" viewBox="0 0 24 24">
  <g id="Group_55785" data-name="Group 55785" transform="translate(21577 10983)">
    <rect id="Rectangle_14569" data-name="Rectangle 14569" width="24" height="24" transform="translate(-21577 -10983)" fill="none"/>
    <path id="Subtraction_1" data-name="Subtraction 1" d="M11.106,22a25.745,25.745,0,0,1-3.427-.238,17.634,17.634,0,0,1-2.313-.448,9.858,9.858,0,0,1-2.189-.869,3.777,3.777,0,0,1-1.654-1.627,7.4,7.4,0,0,1-1.033-2.7,21.684,21.684,0,0,1-.473-5.386,25.136,25.136,0,0,1,.8-5.353A6.233,6.233,0,0,1,5.924.587,23.129,23.129,0,0,1,11.038,0a21.913,21.913,0,0,1,2.514.145,17.552,17.552,0,0,1,3.314.678l.075.023a.806.806,0,0,1,.35.169,5.311,5.311,0,0,1,2.176,1.24A5.7,5.7,0,0,1,20.819,4.37a16.093,16.093,0,0,1,.715,2.493A22.4,22.4,0,0,1,21.9,9.425a20.915,20.915,0,0,1-.5,7.152,7.224,7.224,0,0,1-1.245,2.757,5.84,5.84,0,0,1-3.168,1.861,20.765,20.765,0,0,1-2.928.61A22.284,22.284,0,0,1,11.106,22h0Zm.045-7.164c-1.046,0-1.586.539-1.65,1.649a1.589,1.589,0,0,0,1.555,1.467H11.1a1.586,1.586,0,0,0,1.521-1.281c.154-.733-.187-1.324-1.042-1.809A3.593,3.593,0,0,0,11.151,14.836ZM10.6,13.26c.343,0,.691,0,1.028.008h0l.638.006a.18.18,0,0,0,.153-.169c0-.066,0-.133,0-.2a4.165,4.165,0,0,0-.014-.429,1.827,1.827,0,0,1,.654-1.6c.33-.3.649-.633.957-.949l.127-.131a3.051,3.051,0,0,0,.81-2.424A3.124,3.124,0,0,0,13.735,5.1a4.154,4.154,0,0,0-2.446-.769,5.387,5.387,0,0,0-.88.076A3.9,3.9,0,0,0,7.17,7.666c-.031.185-.021.288.035.354a.344.344,0,0,0,.276.086h.051c.3-.013.6-.019.935-.019.312,0,.649.006,1.028.017h.059c.267,0,.425-.066.492-.412a1.525,1.525,0,0,1,.277-.672.93.93,0,0,1,.658-.345,1.252,1.252,0,0,1,.131-.007,1,1,0,0,1,.913.557,1.316,1.316,0,0,1,.1.71,1.187,1.187,0,0,1-.247.665c-.455.5-.9.982-1.377,1.452a2.488,2.488,0,0,0-.822,2.035,5.447,5.447,0,0,1,0,.823.352.352,0,0,0,.059.275.358.358,0,0,0,.276.08h.02C10.208,13.261,10.393,13.26,10.6,13.26Z" transform="translate(-21576 -10982)" fill="#fff" stroke="rgba(0,0,0,0)" stroke-miterlimit="10" stroke-width="1"/>
  </g>
</svg>
