<svg xmlns="http://www.w3.org/2000/svg" width="24" height="24" viewBox="0 0 24 24">
  <g id="Group_55786" data-name="Group 55786" transform="translate(21518 10983)">
    <path id="Subtraction_3" data-name="Subtraction 3" d="M11.1,22h0a25.676,25.676,0,0,1-3.426-.238,12.685,12.685,0,0,1-4.5-1.317A3.786,3.786,0,0,1,1.52,18.818a7.41,7.41,0,0,1-1.033-2.7A22.759,22.759,0,0,1,.818,5.376,6.234,6.234,0,0,1,5.923.587,23.127,23.127,0,0,1,11.037,0,21.921,21.921,0,0,1,13.55.145a17.585,17.585,0,0,1,3.315.678l.077.024a.8.8,0,0,1,.348.169A5.2,5.2,0,0,1,20.818,4.37,18.789,18.789,0,0,1,21.9,9.426a20.919,20.919,0,0,1-.5,7.152,7.221,7.221,0,0,1-1.245,2.757,5.846,5.846,0,0,1-3.169,1.86A21.42,21.42,0,0,1,11.1,22Zm.005-17.936a7.02,7.02,0,0,0-4.66,1.745A7.117,7.117,0,0,0,11.126,18.3a7.117,7.117,0,0,0,6.737-9.365l-.321.323c-.265.268-.514.519-.776.762a.537.537,0,0,0-.173.519,5.522,5.522,0,0,1-5.287,6.166l-.175,0A5.529,5.529,0,0,1,11.1,5.652a5.421,5.421,0,0,1,.914.078,5.657,5.657,0,0,1,2.511,1.1l.079-.08,1.032-1.041A6.925,6.925,0,0,0,11.109,4.064ZM8.887,8.484,8.3,9.043,7.042,10.23l2.723,2.837,1.436,1.5L16.791,9.01l2.5-2.488-.86-.908,0-.005-.871-.919L14.426,7.853,11.278,11.03l-.022-.023C10.463,10.163,9.682,9.332,8.887,8.484Z" transform="translate(-21517 -10982)" fill="#fff" stroke="rgba(0,0,0,0)" stroke-miterlimit="10" stroke-width="1"/>
    <g id="Group_55771" data-name="Group 55771" transform="translate(30)">
      <rect id="Rectangle_14569" data-name="Rectangle 14569" width="24" height="24" transform="translate(-21548 -10983)" fill="none"/>
    </g>
  </g>
</svg>
