<svg xmlns="http://www.w3.org/2000/svg" width="12.105" height="12.105" viewBox="0 0 12.105 12.105">
  <g id="Group_50409" data-name="Group 50409" transform="translate(0 0)">
    <path id="Path_38771" data-name="Path 38771" d="M6.766,6.766l5.044-5.043L10.383.3,5.339,5.339ZM.3,1.722,5.339,6.766,6.766,5.339,1.722.3Zm11.513,0A1.009,1.009,0,0,0,10.383.3ZM6.052,6.052l-.713.713a1.007,1.007,0,0,0,1.426,0ZM1.722.3A1.009,1.009,0,0,0,.3,1.722Z" transform="translate(7.061 0) rotate(90)" fill="#9e9e99"/>
    <path id="Path_38772" data-name="Path 38772" d="M6.766,6.766l5.044-5.043L10.383.3,5.339,5.339ZM.3,1.722,5.339,6.766,6.766,5.339,1.722.3Zm11.513,0A1.009,1.009,0,0,0,10.383.3ZM6.052,6.052l-.713.713a1.007,1.007,0,0,0,1.426,0ZM1.722.3A1.009,1.009,0,0,0,.3,1.722Z" transform="translate(12.105 0) rotate(90)" fill="#9e9e99"/>
  </g>
</svg>
