<svg xmlns="http://www.w3.org/2000/svg" width="120" height="119.994" viewBox="0 0 120 119.994">
  <g id="Group_52500" data-name="Group 52500" transform="translate(5733.464 -239.387)">
    <path id="Path_43154" data-name="Path 43154" d="M-5673.461,359.38a59.935,59.935,0,0,1-60-60,59.96,59.96,0,0,1,60.859-59.983,60.01,60.01,0,0,1,59.141,60.249A59.982,59.982,0,0,1-5673.461,359.38Zm0-116.6A56.6,56.6,0,0,0-5730.1,298.6a56.619,56.619,0,0,0,56.563,57.4,56.629,56.629,0,0,0,56.641-57.4A56.582,56.582,0,0,0-5673.461,242.779Z" transform="translate(-0.003 0)" fill="#ec2126"/>
    <path id="Path_43155" data-name="Path 43155" d="M-5636.664,279.492a56.7,56.7,0,0,1,56.641,55.82,56.694,56.694,0,0,1-56.719,57.4,56.621,56.621,0,0,1-56.562-57.4A56.7,56.7,0,0,1-5636.664,279.492Zm0,1.2a55.315,55.315,0,0,0-55.391,55.01,55.3,55.3,0,0,0,54.375,55.83,55.455,55.455,0,0,0,56.406-55.081A55.352,55.352,0,0,0-5636.664,280.688Z" transform="translate(-36.757 -36.714)" fill="#fefbf7"/>
    <path id="Path_43156" data-name="Path 43156" d="M-5623.93,293.638a55.47,55.47,0,0,1,55.469,55.762,55.507,55.507,0,0,1-56.406,55.081,55.487,55.487,0,0,1-54.531-55.833A55.486,55.486,0,0,1-5623.93,293.638Zm-45.391,65.42c.156,0,.234-.127.391-.215,1.016-.688,2.031-1.37,2.969-2.085a.55.55,0,0,1,.781.01c.391.325.859.62,1.25.925.781.483,1.406.959,2.188,1.494a.848.848,0,0,0-.156-.483c-.312-1.243-.7-2.478-1.094-3.713-.078-.227-.078-.352.156-.491.391-.293.781-.623,1.25-.935.7-.547,1.406-1.094,2.188-1.694-.156-.01-.234-.022-.312-.022-1.328-.027-2.656-.059-3.984-.071a.421.421,0,0,1-.469-.317c-.156-.537-.391-1.064-.547-1.6a25.641,25.641,0,0,1-.859-2.529,1.224,1.224,0,0,0-.156.383c-.469,1.223-.859,2.444-1.25,3.669-.156.283-.234.4-.547.4-1.016,0-2.031.039-3.047.059-.391.007-.781,0-1.328,0a1.45,1.45,0,0,1,.469.33c.938.754,1.953,1.523,3.047,2.256.234.205.234.388.156.7-.078.461-.312.933-.391,1.411a14.544,14.544,0,0,0-.7,2.507l-.078.051Zm90.859-18.008c0,.015.078.046.078.039.078-.024.078-.063,0-.1-.7-1.223-1.328-2.446-2.031-3.66-.078-.215-.156-.354,0-.547.547-.532.938-1.089,1.406-1.636.469-.53.938-1.057,1.406-1.6a.323.323,0,0,0-.312-.015c-1.328.249-2.578.486-3.828.762a.507.507,0,0,1-.625-.251c-.391-.649-.7-1.279-1.094-1.917-.391-.571-.781-1.14-1.172-1.787-.156,1.511-.312,2.915-.469,4.324-.078.273-.156.381-.391.444-1.25.271-2.422.557-3.594.85-.234.039-.391.022-.469.2a1.307,1.307,0,0,0,.391.22c1.094.522,2.266,1.055,3.359,1.57.234.1.391.212.313.471-.078.8-.156,1.6-.156,2.4a14.706,14.706,0,0,0-.156,1.846c1.016-1.008,1.953-2.026,2.891-3.059a.485.485,0,0,1,.625-.129C-5581.039,340.015-5579.711,340.527-5578.461,341.05Zm-45.469-24.282A32.257,32.257,0,0,0-5656.2,348.9a32.122,32.122,0,0,0,31.641,32.441,32.252,32.252,0,0,0,32.891-32.349A32.323,32.323,0,0,0-5623.93,316.768Zm8.672-4.175a2.061,2.061,0,0,1-1.641-1.982,4.538,4.538,0,0,1,2.813-4.143,5.9,5.9,0,0,1,4.688.554c.313.122.234.3.156.518-.469.95-.937,1.9-1.406,2.854a.912.912,0,0,0,.078.989c.234.381.469.781.7,1.179.156.276.313.349.625.193a7.713,7.713,0,0,1,4.922-.664c.313.059.234.161.156.347a3.915,3.915,0,0,0-.781,1.106,9.168,9.168,0,0,0-.781,2.886,1.344,1.344,0,0,0,.938,1.58c.078-.181.078-.352.156-.527a5.507,5.507,0,0,1,1.641-3.32,6.431,6.431,0,0,1,1.875-1.262c.234-.134.313-.232.078-.481-.391-.464-.781-.947-1.172-1.436a1.27,1.27,0,0,0-.859-.486,10.511,10.511,0,0,0-5.078,0c-.312.107-.469.017-.312-.356a16.949,16.949,0,0,1,.781-1.929c.234-.542.234-.542.781-.337a42.948,42.948,0,0,1,9.844,5.625,1.363,1.363,0,0,1,.625,1c0,.178,0,.264-.234.19a6.161,6.161,0,0,0-1.641-.249c-.859-.017-1.25.513-.937,1.35a2.581,2.581,0,0,0,2.188,1.814c.313.029.469.1.469.439a2.043,2.043,0,0,0,.391.908,2.123,2.123,0,0,0,1.875,1.187c.7-.007.938-.337.859-1.018,0-.352-.156-.7-.156-1.045,0-.181-.156-.42-.078-.53.234-.129.469,0,.7.12a.956.956,0,0,1,.469.557c.156.249.156.508.313.747a1.522,1.522,0,0,1-.469,1.9c-.937,1-1.953,2.058-2.891,3.091-.156.146-.312.286-.234.515a7.933,7.933,0,0,0,.547,1.772c1.875-1.978,3.672-3.914,5.547-5.876.391.535.781,1.042,1.25,1.594.078-.5.078-.937.156-1.372a1.263,1.263,0,0,0-.312-1.045c-.156-.161-.312-.393-.156-.583.313-.645-.078-1.169-.156-1.787a29.2,29.2,0,0,0-2.266,2.3,6.662,6.662,0,0,0-.625-2.549,2.018,2.018,0,0,0-.937-1.018,6.013,6.013,0,0,0-1.8-.522c-.547-.1-.547-.107-.625-.737a3.019,3.019,0,0,0-1.25-2.29,42.1,42.1,0,0,0-7.109-4.429,50.581,50.581,0,0,0-11.328-3.894c-2.031-.4-4.062-.583-6.094-.784a.651.651,0,0,1-.625-.571c-.156-.415-.312-.527-.7-.532.078,1.169.547,2.3.547,3.5-.391-.476-.625-.979-1.016-1.462a2.16,2.16,0,0,0-1.953-1.045,45.126,45.126,0,0,0-12.344,1.9,27.725,27.725,0,0,0-3.125,1.116c.469.247.938.315,1.25.5a1.568,1.568,0,0,0,1.25.034,35.666,35.666,0,0,1,5.469-1.406c.938-.161,1.8-.278,2.656-.4.156-.022.391-.1.469.149a1.513,1.513,0,0,1,.156,1.025,2.347,2.347,0,0,0-2.656-.266,9.513,9.513,0,0,0-.937.525.649.649,0,0,1-.625.107,4.737,4.737,0,0,0-2.344-.063,3.1,3.1,0,0,0-2.109,1.372,1.916,1.916,0,0,0,.859,2.891,4.17,4.17,0,0,0,1.406.339,4.124,4.124,0,0,0,3.281-.935.651.651,0,0,0,.234-.72,1.614,1.614,0,0,0-1.8-1.011,1.535,1.535,0,0,0-1.562,1.3c0,.266-.156.3-.312.256a.6.6,0,0,1-.469-.249c-.391-.4-.312-.923.234-1.384a3.332,3.332,0,0,1,2.734-.623,1.589,1.589,0,0,1,1.172.7c.234.5.547.127.781.054.391-.083.313-.281.234-.542a.679.679,0,0,1,.625-.962c.859-.139,1.406.315,1.641,1.25.234,1.108.391,2.214.625,3.325.078.293.078.557.391.669.469.156.859.288,1.25.425.234.073.313.029.313-.249-.156-.708-.234-1.414-.391-2.119q-.469-2.512-.937-5.024c-.078-.349.078-.444.391-.464.7-.034,1.328-.1,2.031-.142,1.328-.093,2.109.593,2.031,1.895,0,1.335-.078,2.671-.156,4.009-.078,1.9-.234,1.392,1.172,2.483.391.242.391.164.391-.193.078-1.377.156-2.759.234-4.136.078-1.152.156-2.307.156-3.462.078-.342.156-.474.547-.449.313.034.625.049,1.016.078,1.25.088,2.422.31,3.594.508.078.02.234.024.234.151s-.078.142-.156.193c-.391.291-.859.559-1.25.852a3.734,3.734,0,0,0-1.328,1.917,4.352,4.352,0,0,0,3.672,5.347,2.981,2.981,0,0,0,2.109-.278.975.975,0,0,0,.078-1.7,4.069,4.069,0,0,0-1.328-.574,1.809,1.809,0,0,0-1.328.264.582.582,0,0,0-.234.869C-5615.336,312.4-5615.258,312.466-5615.258,312.593Zm-42.969,57.91c-.469,0-.781-.007-1.172,0a1.479,1.479,0,0,0-1.328.786,2.8,2.8,0,0,0,.547,3.323c.313.31.625.586.938.867.234.205.469.42.234.747s-.547.283-.859.093a6.106,6.106,0,0,1-1.953-2.388,1.284,1.284,0,0,1-.234-.74,5.212,5.212,0,0,1,1.406-3.311,2.287,2.287,0,0,0,.625-.82c.156-.3,0-.491-.312-.52a.883.883,0,0,0-.781.308c-.391.4-.7.786-1.094,1.191a4.872,4.872,0,0,0-1.172,4.441,4.391,4.391,0,0,0,2.578,3.21,2.112,2.112,0,0,0,2.813-1.226,4.131,4.131,0,0,0,.234-1.37.971.971,0,0,0-.547-1.052,5.218,5.218,0,0,1-1.406-.986c-.156-.188-.391-.422-.234-.713a.614.614,0,0,1,.7-.339c.469.051.938.144,1.328.205.313.044.391.183.391.5a2.885,2.885,0,0,0,.078,1.626,8,8,0,0,0,1.016,2.214c.391.586.391.6-.312.764a4.88,4.88,0,0,0-2.422,1.514,10.977,10.977,0,0,0-1.016,1.411,1.02,1.02,0,0,0,.156,1.482c.156.161.234.22.313-.017l.234-.261a4.033,4.033,0,0,1,4.453-2.3c.078.017.234.015.313.037.469.083.625-.015.547-.454a4.761,4.761,0,0,1,0-1.055,1.21,1.21,0,0,0-.547-1.279,6.531,6.531,0,0,1-1.719-1.936,3.241,3.241,0,0,1-.156-.891c0-.112,0-.229.156-.283.078-.071.156.061.234.137.391.415.7.833,1.094,1.255,1.016,1.172,1.953,2.329,2.969,3.467.7.757.7,1.133.078,1.9-1.094,1.194-2.031,2.419-3.125,3.567a1.661,1.661,0,0,0-.469,1.926c0,.188,0,.5.156.549s.313-.229.391-.374c1.563-1.729,3.047-3.472,4.609-5.188.547-.627.391-.581,1.016-.1,1.172.889,2.344,1.772,3.594,2.588a36.24,36.24,0,0,0,8.828,4.3c.547.173.547.2.313.73-.469,1.694-.937,3.413-1.562,5.078a1.839,1.839,0,0,0,.469,2.219c.078.1.156.305.234.281.234-.029.234-.239.234-.383q1.055-3.428,2.109-6.863c.078-.254.234-.374.469-.312a18.254,18.254,0,0,1,4.063,1.455,1.125,1.125,0,0,1,.469.432c.078.183.156.315-.078.425-.469.2-.859.425-1.25.63a6.764,6.764,0,0,0-1.484.823,14.68,14.68,0,0,1,1.016,1.211,1.618,1.618,0,0,0,.938.542,5.515,5.515,0,0,1,4.375,3.213,2.8,2.8,0,0,0,.938.938,1.651,1.651,0,0,0,.078-.588c.234-2.336.547-4.673.781-7.009.078-.667.078-.664.781-.635a5.166,5.166,0,0,0,1.25-.024c-.312-.249-.547-.461-.781-.674a1.3,1.3,0,0,0-.781-.4c-.312-.01-.625-.046-.937-.059a33.888,33.888,0,0,1-8.672-1.318c-.7-.208-.7-.2-.781-.9a4.726,4.726,0,0,0-1.562-3.555,10.242,10.242,0,0,0-5.625-2.532,3.78,3.78,0,0,0-1.953.1c-.937.369-1.172,1.14-.391,1.853a5.377,5.377,0,0,0,2.266,1.343c.7.232,1.406.459,2.109.7.156.071.391.144.469.322.156.12.156.217-.078.264a1.414,1.414,0,0,1-1.172-.085c-.547-.308-1.094-.566-1.562-.845a30.406,30.406,0,0,1-6.328-4.155c-.7-.569-.7-.757-.391-1.523a.669.669,0,0,0,.156-.525c-.078-.11-.078-.247-.156-.276-.156-.039-.234.122-.312.21l-1.172,2.241a5.011,5.011,0,0,1-.391.5c-.156-.244,0-.439,0-.63a2.088,2.088,0,0,0-.469-2.383,14.135,14.135,0,0,1-1.094-1.167,38.966,38.966,0,0,1-6.875-10.186c-.078-.1-.078-.249-.312-.266a1.479,1.479,0,0,1-.156.571,2.163,2.163,0,0,0,.234,1.951C-5659.086,368.833-5658.7,369.673-5658.227,370.5Zm70.547,11.169c-.781-.872-1.484-1.641-2.266-2.415-1.016-1.143-2.109-2.29-3.2-3.433a.323.323,0,0,1,0-.5,12.3,12.3,0,0,0,1.094-1.331c.156-.232.313-.212.469-.085.7.41,1.328.818,2.031,1.221,1.875,1.062,1.172,1.025,3.2.227.078-.007.078-.012.078-.015.156-.061.156-.183.156-.4a5.41,5.41,0,0,1-.625-2.439,6.241,6.241,0,0,1,.234-2.388c.313.293.625.559.859.793a10.363,10.363,0,0,0,3.594,1.484.855.855,0,0,0,.859-.332c.234-.332.234-.371-.156-.513a9.426,9.426,0,0,1-2.266-1.1,6.941,6.941,0,0,1-2.109-2.8c-.078-.212-.156-.312-.391-.154-.469.315-1.016.588-1.562.879a.5.5,0,0,0-.312.4,8.343,8.343,0,0,0-.391,4.373,1.41,1.41,0,0,1,.078.813c-.781-.41-1.484-.9-2.187-1.34-.312-.19-.312-.315-.078-.637a33.907,33.907,0,0,0,3.516-6.467c0-.134.156-.264.078-.417a2.607,2.607,0,0,0-1.8,1.445,40.2,40.2,0,0,1-13.359,15.232c-.078.1-.312.173-.391.4,1.25.015,2.578.3,3.672-.693a3.094,3.094,0,0,1,1.484-.908,1.1,1.1,0,0,1,1.406,1.155,3.107,3.107,0,0,0-.078.847c0,.874-.391,1.1-1.172.845-.625-.183-.625-.183-.781.454v.21c0,.264,0,.41.313.464a6.237,6.237,0,0,0,1.406.132,2.159,2.159,0,0,0,2.109-2.073c0-.747.078-1.494.078-2.239a1.291,1.291,0,0,1,1.563-1.277,1.8,1.8,0,0,1,.938.6c.625.569,1.094,1.147,1.641,1.724.156.166.313.352.547.347C-5588.852,381.753-5588.3,381.709-5587.68,381.672Zm-60-60.247c-.156-.166-.312-.288-.391-.4-1.8-1.6-3.516-3.21-5.312-4.8-.234-.239-.234-.391,0-.615a17.654,17.654,0,0,0,1.484-1.3,2.6,2.6,0,0,1,1.328-.581,1,1,0,0,1,1.016.4c.234.352.547.681.781,1.038.781,1.079,1.563,2.168,2.266,3.252.234.273.391.6.781.679a5.572,5.572,0,0,0,1.8-.02,6.11,6.11,0,0,1-.391-.518c-1.328-1.882-2.656-3.765-3.906-5.649-.625-.84-.547-.847.234-1.4.234-.146.469-.278.7-.427.156-.1.313-.166.391-.381-.625-.056-1.094-.122-1.641-.151a1.126,1.126,0,0,0-.937.33.705.705,0,0,1-1.016.022c-.312-.242-.547-.205-.937-.024.938.82,1.8,1.611,2.656,2.4l-.078.12c-.391-.073-.7-.325-1.172-.469a2.738,2.738,0,0,0-2.812.359,43.378,43.378,0,0,0-7.812,8.086,19,19,0,0,0-1.562,2.241c.547-.137,1.094-.259,1.563-.366a.9.9,0,0,0,.625-.464,46.89,46.89,0,0,1,3.594-4.392c.391-.359.781-.7,1.094-1.042l.078.068c-.391,1.006-.859,2.017-1.328,3.022a30.553,30.553,0,0,0-1.484,3.591c-.156.293-.078.381.234.349.469-.059.938-.129,1.406-.146a1.368,1.368,0,0,0,1.016-.459,7.994,7.994,0,0,1,5.859-2.219A7.369,7.369,0,0,0-5647.68,321.426ZM-5670.1,333.8a1.686,1.686,0,0,0,.391.413c.7.93,1.563,1.868,2.344,2.781a.617.617,0,0,1,.078.8c-.7,1.191-1.328,2.4-2.031,3.674a5.53,5.53,0,0,1,.547-.205c1.094-.486,2.344-.969,3.438-1.472.313-.1.391-.083.547.112.391.4.7.771,1.094,1.152.547.654,1.172,1.309,1.8,1.968.156-.1.078-.19.078-.266-.156-1.277-.234-2.551-.312-3.826-.078-.352,0-.552.391-.708,1.094-.505,2.344-1.06,3.438-1.6.078-.044.313-.049.313-.193,0-.015-.078-.032-.078-.042-1.328-.312-2.656-.63-3.984-.928-.312-.068-.469-.151-.469-.5-.078-.928-.156-1.846-.312-2.769-.078-.474-.156-.947-.234-1.509-.781,1.306-1.484,2.515-2.266,3.738-.156.217-.234.276-.469.217-.7-.171-1.406-.3-2.187-.437C-5668.617,334.065-5669.32,333.94-5670.1,333.8Zm94.844,18.174c-.234-.015-.391-.029-.547-.029-1.25-.015-2.5-.007-3.75-.063a.506.506,0,0,1-.547-.376c-.312-.962-.625-1.919-1.016-2.871a3.439,3.439,0,0,0-.391-1.128c-.469,1.377-.937,2.688-1.406,4.006-.078.208-.078.369-.391.369-.937,0-1.8.034-2.656.049-.625.007-1.094,0-1.641,0a.616.616,0,0,0,.313.356c1.016.767,1.953,1.538,3.047,2.29.234.161.313.3.156.562-.312,1.084-.625,2.173-1.016,3.269a1.453,1.453,0,0,0-.156.835c1.172-.823,2.344-1.611,3.438-2.424.234-.171.391-.161.7.007.938.72,1.953,1.428,2.969,2.131a1.544,1.544,0,0,0,.469.244.994.994,0,0,0-.156-.479c-.312-1.143-.7-2.29-1.016-3.428a.567.567,0,0,1,.234-.8c.547-.381,1.094-.825,1.719-1.243C-5576.43,352.852-5575.883,352.446-5575.258,351.973Zm-30.781,33.318a2.188,2.188,0,0,0-2.344-.149,6.492,6.492,0,0,1-.781.31,37,37,0,0,1-9.375,2.546c-.078.01-.312,0-.391.178.469.276,1.016.554,1.563.808a2.9,2.9,0,0,0,2.109.142c.234-.071.547-.156.781-.21a1.48,1.48,0,0,1,1.641.679c.156.193.313.391.156.632-.234.525-.547,1.04-.781,1.521-.312.31-.547.369-.859.149-.234-.161-.391-.374-.625-.554-.078-.049-.156-.22-.234-.1a5.061,5.061,0,0,0-.625.889c-.078.122.078.2.156.254.313.22.625.452.938.635a2.218,2.218,0,0,0,3.2-.959c.391-.63.625-1.282,1.016-1.907a1.244,1.244,0,0,1,2.188-.071c.156.212.234.442.391.686.156.566.313,1.118.469,1.694a1.637,1.637,0,0,0,1.328,1.414c0,.007.078.022.078.027.234.044.391.288.547.132s0-.4,0-.591c-.781-2.217-1.406-4.434-2.187-6.643-.156-.432,0-.637.391-.818A4.7,4.7,0,0,0-5606.039,385.291Zm-42.656-3.835c-.078.308-.156.566-.234.825a26.764,26.764,0,0,0,0,3.54,6.374,6.374,0,0,0,2.891,4.949,4.726,4.726,0,0,0,4.3.476,1.83,1.83,0,0,0,1.25-1.428,3.376,3.376,0,0,0-.859-3.665,4.146,4.146,0,0,0-3.516-1.509,1.391,1.391,0,0,0-1.328,1.064,1.608,1.608,0,0,0,.391,1.655,3.109,3.109,0,0,0,1.719.806,1.192,1.192,0,0,0,1.484-.967c.078-.4.234-.366.469-.212a1.661,1.661,0,0,1,.7,1.758c0,.569-.469.959-1.094,1.091a2.639,2.639,0,0,1-.937.037,4.753,4.753,0,0,1-4.062-3.3,11.889,11.889,0,0,1-.391-3.713A1.559,1.559,0,0,0-5648.7,381.455Zm6.8-73.494a3.816,3.816,0,0,0-3.75,2.361,1.291,1.291,0,0,0,.938,1.846,3.869,3.869,0,0,0,4.063-1.27,1.8,1.8,0,0,0,.469-2.017C-5640.492,308.093-5641.273,308.018-5641.9,307.961Zm39.3,74.919a2.931,2.931,0,0,0-2.969,2.407,1.369,1.369,0,0,0,.859,1.655,3.018,3.018,0,0,0,3.984-2.026,1.486,1.486,0,0,0-1.094-1.938A2.453,2.453,0,0,0-5602.6,382.881Zm-41.328-70c.156.427.313.833.469,1.23.313.7.391.7,1.094.7a56.307,56.307,0,0,1,6.172.088,8.525,8.525,0,0,0,1.484.125c-.156-.637-.391-.923-.781-1.025a39.858,39.858,0,0,0-6.641-1.047A9.624,9.624,0,0,0-5643.93,312.883Zm40.859,74.768c-.078,0-.078-.015-.156-.017-.391-.015-.469.042-.312.41a6.8,6.8,0,0,1,.547,1.091.615.615,0,0,0,.7.376,35.83,35.83,0,0,1,4.766-.1c.625.034,1.328.1,1.953.146.234.02.391-.024.234-.3a1.09,1.09,0,0,0-.859-.7A34.756,34.756,0,0,0-5603.07,387.651Zm-27.031,8.892a1.169,1.169,0,0,0,.859-.293.73.73,0,0,0,.078-1.167,1.637,1.637,0,0,0-2.109-.181.7.7,0,0,0-.156,1.082A1.59,1.59,0,0,0-5630.1,396.543Z" transform="translate(-49.492 -49.663)" fill="#f6ec21"/>
    <path id="Path_43157" data-name="Path 43157" d="M-5373.5,567.106a32.28,32.28,0,0,1,32.3,32.222,32.27,32.27,0,0,1-32.852,32.349,32.182,32.182,0,0,1-31.719-32.441A32.258,32.258,0,0,1-5373.5,567.106Zm1.8,63.7v.117c0,.19.156.127.234.117.7-.059,1.406-.1,2.109-.2a30.829,30.829,0,0,0,19.219-10.02,30.811,30.811,0,0,0,7.773-27.275,29.534,29.534,0,0,0-9.258-17.08,30.77,30.77,0,0,0-27.3-8.3,30.336,30.336,0,0,0-20.352,12.754,30.85,30.85,0,0,0-4.258,28.6A30.793,30.793,0,0,0-5387.172,628a30.922,30.922,0,0,0,12.578,3.086c.117.01.352.137.391-.127V599.943c0-.234.078-.513-.234-.615-.234-.093-.391.112-.508.278a5.345,5.345,0,0,1-1.6,1.187,11.945,11.945,0,0,1-7.812.952c-.7-.146-1.367-.342-2.07-.527a2.165,2.165,0,0,1-.508-.205.3.3,0,0,1-.234-.308c0-.176.156-.21.273-.234a7.931,7.931,0,0,1,.9-.132c1.172-.117,2.344-.186,3.438-.4a50.4,50.4,0,0,1,5.039-.991.416.416,0,0,0,.352-.225c0-.205-.156-.234-.352-.273a17.018,17.018,0,0,1-3.008-1.26,13.439,13.439,0,0,1-5.43-4.678.777.777,0,0,1-.234-.449c-.117-.181-.2-.391,0-.557s.352,0,.469.068c2.07.938,4.18,1.8,6.211,2.627a11.5,11.5,0,0,1,3.359,1.895,10.756,10.756,0,0,0,1.68,1.206c.234.142.664.405.82.132.156-.249-.117-.571-.312-.791a5.469,5.469,0,0,1-1.406-2.563,12.788,12.788,0,0,1-.391-3.218,30.62,30.62,0,0,1,.547-5.332,10.734,10.734,0,0,1,.7-2.686c.039-.156.156-.337.313-.332.2.01.234.176.313.322.352.85.7,1.689,1.016,2.559a45.044,45.044,0,0,1,1.328,8.242c0,.151-.078.332.117.469a.489.489,0,0,1,.2-.176,14.011,14.011,0,0,0,.859-2.461q.82-2.849,1.523-5.713c.2-.664.43-1.309.586-1.953a2.206,2.206,0,0,0,.117-.479c.039-.117.117-.244.273-.234.2,0,.2.146.234.264.156.459.234.918.391,1.387a13.3,13.3,0,0,1-1.6,9.961c-.039.127-.2.254-.117.43a1.686,1.686,0,0,0,.352-.312,8.287,8.287,0,0,0,1.406-2.187c.586-1.743,1.992-2.959,3.008-4.424a14.989,14.989,0,0,1,1.719-1.714c.078-.073.156-.2.313-.117a.23.23,0,0,1,0,.308.633.633,0,0,1-.078.371,19.909,19.909,0,0,1-1.172,3.34,11.962,11.962,0,0,1-3.32,4.536c-.469.405-.9.923-1.406,1.46a3.214,3.214,0,0,0,.82-.43c.117-.068.234-.181.352-.181a8.738,8.738,0,0,0,4.023-1.226,20.108,20.108,0,0,1,4.883-1.689c.117-.039.352-.166.43,0s-.078.313-.2.439c-.2.156-.273.322-.469.459-1.211.967-2.461,1.943-3.711,2.891-.508.42-1.172.771-1.719,1.162a8.2,8.2,0,0,1-6.484.967.442.442,0,0,0-.508.176c.2.068.273.132.43.19a32.979,32.979,0,0,0,7.734,2.2c.7.112,1.406.288,2.109.435.156.034.391.068.391.269.078.22-.156.249-.352.308a3.775,3.775,0,0,1-1.055.254,12.765,12.765,0,0,1-5.273-.391,27.237,27.237,0,0,1-5.508-2.075c-.312-.171-.312,0-.312.239,0,1.514.078,3.013.156,4.521.039,2.773.078,5.547.156,8.32.117,3.574.234,7.148.313,10.723.039,1.738.078,3.467.156,5.2A5.911,5.911,0,0,0-5371.7,630.808Z" transform="translate(-299.983 -300.005)" fill="#fbfcfa"/>
    <path id="Path_43158" data-name="Path 43158" d="M-5190.875,404.7c0-.127-.078-.2-.156-.288a.613.613,0,0,1,.234-.874,1.756,1.756,0,0,1,1.289-.264,3.883,3.883,0,0,1,1.367.576.971.971,0,0,1-.078,1.694,2.73,2.73,0,0,1-2.031.283,4.333,4.333,0,0,1-3.711-5.352,3.66,3.66,0,0,1,1.289-1.909c.391-.293.82-.566,1.289-.854.039-.054.2-.083.2-.2a.388.388,0,0,0-.312-.151c-1.172-.2-2.344-.42-3.594-.508-.312-.029-.7-.049-1.016-.078-.391-.029-.469.107-.547.454,0,1.152-.117,2.3-.117,3.462q-.176,2.065-.234,4.131c0,.361-.117.439-.43.2-1.406-1.094-1.211-.576-1.172-2.48.078-1.338.156-2.676.2-4.014a1.727,1.727,0,0,0-2.07-1.895c-.7.049-1.328.107-2.031.146-.312.015-.391.112-.352.459q.41,2.512.938,5.024c.117.708.234,1.416.352,2.119.078.278-.078.327-.312.249-.391-.132-.781-.264-1.211-.425a.7.7,0,0,1-.43-.669c-.234-1.108-.391-2.217-.625-3.325a1.343,1.343,0,0,0-1.641-1.245c-.547.088-.781.405-.586.957.039.259.117.459-.234.547-.273.073-.508.439-.82-.059a1.438,1.438,0,0,0-1.094-.7,3.374,3.374,0,0,0-2.812.625c-.547.459-.625.986-.234,1.382a.669.669,0,0,0,.469.249c.234.049.313.015.313-.254.078-.781.625-1.206,1.563-1.3a1.658,1.658,0,0,1,1.8,1.011.788.788,0,0,1-.156.723,4.216,4.216,0,0,1-3.281.933,4.133,4.133,0,0,1-1.484-.347,1.9,1.9,0,0,1-.82-2.881,2.942,2.942,0,0,1,2.109-1.377,4.654,4.654,0,0,1,2.344.068.752.752,0,0,0,.664-.112,4.421,4.421,0,0,1,.938-.527,2.237,2.237,0,0,1,2.578.273,1.508,1.508,0,0,0-.156-1.025c-.039-.259-.273-.171-.469-.151-.859.117-1.719.239-2.656.4a35.111,35.111,0,0,0-5.469,1.406,1.594,1.594,0,0,1-1.25-.039c-.312-.181-.781-.249-1.211-.493a25.167,25.167,0,0,1,3.086-1.118,45.313,45.313,0,0,1,12.344-1.9,2.252,2.252,0,0,1,1.953,1.045,15.819,15.819,0,0,0,1.016,1.465,21.306,21.306,0,0,0-.586-3.5c.469,0,.664.122.7.532a.744.744,0,0,0,.7.576c1.992.2,4.023.386,6.055.781a47.806,47.806,0,0,1,11.328,3.892,43.921,43.921,0,0,1,7.188,4.434,3.05,3.05,0,0,1,1.172,2.285c.039.63.039.635.7.737a6.1,6.1,0,0,1,1.719.527,1.837,1.837,0,0,1,.938,1.016,6.66,6.66,0,0,1,.625,2.544,29.564,29.564,0,0,1,2.266-2.295c.078.62.547,1.138.156,1.782a.5.5,0,0,0,.156.586,1.409,1.409,0,0,1,.313,1.045,9.163,9.163,0,0,1-.156,1.372,20.007,20.007,0,0,0-1.289-1.592c-1.836,1.963-3.711,3.9-5.508,5.879a8.091,8.091,0,0,1-.547-1.772.538.538,0,0,1,.234-.518c.938-1.035,1.875-2.09,2.969-3.091a1.542,1.542,0,0,0,.391-1.9,6.071,6.071,0,0,0-.312-.747.824.824,0,0,0-.469-.562c-.234-.117-.469-.244-.7-.122-.156.112.078.347.078.532a4.83,4.83,0,0,1,.156,1.045c.078.684-.156,1.011-.859,1.021a2.127,2.127,0,0,1-1.875-1.187,2.5,2.5,0,0,1-.352-.913c0-.332-.2-.41-.469-.435a2.692,2.692,0,0,1-2.3-1.812c-.234-.84.2-1.372,1.094-1.357a5.857,5.857,0,0,1,1.563.254c.156.068.234-.01.234-.19a1.472,1.472,0,0,0-.586-1.006,43.012,43.012,0,0,0-9.883-5.625c-.547-.205-.547-.2-.781.342a16.666,16.666,0,0,0-.781,1.934c-.078.371-.039.464.391.352a10.253,10.253,0,0,1,5,0,1.372,1.372,0,0,1,.9.488,15.133,15.133,0,0,0,1.172,1.44c.2.249.117.342-.117.479a10.162,10.162,0,0,0-1.953,1.26,5.874,5.874,0,0,0-1.562,3.32,2.489,2.489,0,0,0-.117.527c-.82-.386-1.055-.747-.937-1.582a8.208,8.208,0,0,1,.742-2.886,5.056,5.056,0,0,1,.781-1.1c.117-.186.117-.288-.156-.352a7.635,7.635,0,0,0-4.883.674c-.352.146-.469.078-.664-.2-.234-.4-.469-.8-.742-1.182a.911.911,0,0,1,0-.991c.469-.942.9-1.9,1.367-2.847.078-.22.078-.4-.156-.522a5.884,5.884,0,0,0-4.687-.557,4.484,4.484,0,0,0-2.812,4.146A2.059,2.059,0,0,0-5190.875,404.7Z" transform="translate(-473.922 -141.772)" fill="#109651"/>
    <path id="Path_43159" data-name="Path 43159" d="M-5486.277,1148.516c-.391-.84-.859-1.68-1.328-2.48a1.79,1.79,0,0,1-.234-1.953,1.47,1.47,0,0,1,.078-.566c.234.02.234.156.234.264a41.622,41.622,0,0,0,7.031,10.2,15.15,15.15,0,0,0,1.016,1.162,2.256,2.256,0,0,1,.547,2.383.85.85,0,0,0-.078.625,1.441,1.441,0,0,0,.391-.488c.469-.752.859-1.5,1.25-2.246.078-.088.078-.254.234-.215.078.02.078.176.156.273.078.2-.078.352-.078.527-.469.762-.391.957.313,1.523a31.228,31.228,0,0,0,6.328,4.16c.469.273,1.094.527,1.563.84a1.376,1.376,0,0,0,1.172.078c.234-.039.234-.137.156-.254a1.067,1.067,0,0,0-.625-.332c-.625-.234-1.406-.469-2.031-.7a5.6,5.6,0,0,1-2.344-1.328c-.7-.723-.469-1.494.469-1.855a3.8,3.8,0,0,1,1.953-.107,10.048,10.048,0,0,1,5.625,2.529,5.132,5.132,0,0,1,1.641,3.564c.078.7.078.693.7.889a33.689,33.689,0,0,0,8.672,1.328c.313.01.625.059.938.059a1.231,1.231,0,0,1,.781.41c.234.2.469.42.781.664a4.915,4.915,0,0,1-1.25.02c-.625-.029-.625-.029-.781.645-.234,2.324-.547,4.668-.781,7v.586a1.823,1.823,0,0,1-.937-.937,5.8,5.8,0,0,0-4.453-3.213,1.65,1.65,0,0,1-.937-.537,14,14,0,0,0-1.016-1.221,8.741,8.741,0,0,1,1.406-.82c.469-.2.938-.42,1.328-.625.234-.1.234-.234.078-.43a.777.777,0,0,0-.469-.42,17.926,17.926,0,0,0-4.062-1.465c-.312-.059-.391.059-.469.322l-2.109,6.855c0,.146,0,.352-.156.381-.234.029-.234-.176-.312-.283a1.8,1.8,0,0,1-.391-2.207c.547-1.67,1.016-3.379,1.563-5.078.156-.527.156-.566-.391-.742a36.558,36.558,0,0,1-8.828-4.287c-1.25-.82-2.422-1.7-3.594-2.588-.625-.488-.469-.527-1.016.1-1.484,1.719-3.047,3.457-4.609,5.186-.078.146-.156.42-.391.381-.234-.059-.078-.371-.156-.557a1.655,1.655,0,0,1,.469-1.924c1.094-1.152,2.109-2.363,3.125-3.574.625-.762.7-1.133,0-1.885q-1.641-1.714-3.047-3.467c-.391-.43-.7-.84-1.094-1.27,0-.068-.078-.2-.312-.127,0,.059-.078.176-.078.293a1.234,1.234,0,0,0,.234.879,5.319,5.319,0,0,0,1.641,1.934,1.365,1.365,0,0,1,.547,1.289v1.055c0,.439-.156.527-.469.459a1.782,1.782,0,0,0-.391-.049,4.047,4.047,0,0,0-4.453,2.295c-.078.1-.078.176-.156.273-.156.234-.234.176-.391.01a1.082,1.082,0,0,1-.156-1.475c.391-.488.7-.977,1.016-1.406a4.439,4.439,0,0,1,2.5-1.523c.625-.166.625-.176.234-.762a11.384,11.384,0,0,1-1.016-2.217,3.832,3.832,0,0,1-.078-1.631c.078-.3-.078-.449-.391-.488-.469-.059-.859-.156-1.328-.215a.687.687,0,0,0-.7.342.63.63,0,0,0,.234.713,5.587,5.587,0,0,0,1.328.986,1.008,1.008,0,0,1,.7,1.055,4.163,4.163,0,0,1-.234,1.377,2.161,2.161,0,0,1-2.812,1.211,4.051,4.051,0,0,1-2.578-3.2,4.823,4.823,0,0,1,1.094-4.434c.391-.41.781-.8,1.094-1.191a.84.84,0,0,1,.781-.312c.391.039.469.225.313.518a3.649,3.649,0,0,1-.625.82,5.136,5.136,0,0,0-1.328,3.311,1.236,1.236,0,0,0,.156.742,5.665,5.665,0,0,0,2.031,2.393c.313.186.547.244.781-.107.156-.312,0-.537-.234-.742-.312-.273-.7-.557-1.016-.859a2.919,2.919,0,0,1-.469-3.33,1.534,1.534,0,0,1,1.25-.771C-5487.059,1148.5-5486.668,1148.516-5486.277,1148.516Zm14.609,10.557a11.889,11.889,0,0,0,1.328.811c.938.469,1.953.859,2.813,1.387a1.855,1.855,0,0,1,1.016,1.953.386.386,0,0,0,.234.479,13.188,13.188,0,0,1,1.25.439c.625.215.781.146.859-.557a.61.61,0,0,0-.078-.361,3.172,3.172,0,0,0-1.25-2.051,9.434,9.434,0,0,0-4.531-2.1A2.476,2.476,0,0,0-5471.668,1159.072Zm13.438,11.367a9.916,9.916,0,0,1,3.2,2.217c0-.156.078-.283.078-.4.156-1.23.234-2.461.391-3.691,0-1.045,0-1.055-.937-1.182a7.758,7.758,0,0,0-1.641-.137c.391.391.7.732,1.094,1.074.547.508.547.508-.078.859A10.931,10.931,0,0,0-5458.23,1170.439Z" transform="translate(-221.497 -827.664)" fill="#119651"/>
    <path id="Path_43160" data-name="Path 43160" d="M-4756.1,1155.113c-.625.039-1.172.088-1.719.1a.664.664,0,0,1-.508-.352c-.586-.566-1.133-1.152-1.641-1.709a2.07,2.07,0,0,0-.937-.615,1.311,1.311,0,0,0-1.6,1.27c-.039.752-.039,1.5-.078,2.246a2.174,2.174,0,0,1-2.109,2.08,7.5,7.5,0,0,1-1.367-.127.4.4,0,0,1-.352-.469.249.249,0,0,0,.078-.215c.078-.645.078-.645.7-.449.859.254,1.172.029,1.211-.85v-.85a1.078,1.078,0,0,0-1.406-1.152,3.748,3.748,0,0,0-1.445.9c-1.094,1-2.344.723-3.711.7a1.358,1.358,0,0,1,.469-.41,39.435,39.435,0,0,0,13.359-15.234,2.5,2.5,0,0,1,1.836-1.426.891.891,0,0,1-.156.41,34.134,34.134,0,0,1-3.555,6.465c-.234.332-.2.449.117.635.781.439,1.406.938,2.227,1.348a1.862,1.862,0,0,0-.117-.82,8.727,8.727,0,0,1,.352-4.365.666.666,0,0,1,.352-.41c.547-.293,1.055-.557,1.563-.879.234-.156.313-.059.43.156a6.522,6.522,0,0,0,2.109,2.8,8.378,8.378,0,0,0,2.3,1.1c.391.137.391.186.078.508a.817.817,0,0,1-.859.332,10.316,10.316,0,0,1-3.594-1.484c-.273-.234-.508-.508-.859-.8a7.273,7.273,0,0,0-.312,2.393,10.454,10.454,0,0,0,.664,2.451c.117.215.117.332-.2.391v.02c-2.031.8-1.406.83-3.125-.225-.7-.41-1.406-.811-2.07-1.23-.234-.117-.352-.146-.508.088a8.142,8.142,0,0,1-1.094,1.328.579.579,0,0,0,0,.508c1.133,1.133,2.188,2.285,3.242,3.438C-4757.625,1153.473-4756.883,1154.254-4756.1,1155.113Zm-7.852-1.582a2.151,2.151,0,0,0,.039-.469,1.153,1.153,0,0,1,.664-1.084,2.149,2.149,0,0,1,1.445-.244c.078.01.234.078.313-.039s-.078-.186-.156-.254c-.312-.293-.625-.566-.9-.869a.422.422,0,0,0-.664.01c-.7.684-1.445,1.328-2.148,1.992a.493.493,0,0,0-.234.41A2.781,2.781,0,0,1-4763.953,1153.531Z" transform="translate(-881.078 -823.117)" fill="#119651"/>
    <path id="Path_43161" data-name="Path 43161" d="M-5461.605,504.395a6.777,6.777,0,0,1-1.8.127,8.076,8.076,0,0,0-5.937,2.222,1.518,1.518,0,0,1-1.016.459c-.469.02-.937.088-1.406.146-.312.034-.391-.054-.312-.347.469-1.23.938-2.417,1.484-3.594q.7-1.509,1.406-3.022l-.078-.068a10.693,10.693,0,0,0-1.016,1.045,37.775,37.775,0,0,0-3.672,4.39,1.088,1.088,0,0,1-.625.464c-.469.107-.937.229-1.562.366a19,19,0,0,1,1.563-2.241,41.511,41.511,0,0,1,7.891-8.086,2.67,2.67,0,0,1,2.813-.356,5.308,5.308,0,0,0,1.094.469l.078-.122c-.859-.791-1.719-1.582-2.656-2.4a.777.777,0,0,1,.938.024c.313.288.625.269,1.016-.024a1.225,1.225,0,0,1,1.016-.327c.469.029,1.016.1,1.563.151a.742.742,0,0,1-.391.381c-.234.151-.469.283-.7.43-.781.557-.781.562-.234,1.4,1.328,1.89,2.578,3.77,3.984,5.654,0,.151.156.3.313.518a5.714,5.714,0,0,1-1.8.024c-.391-.078-.547-.41-.7-.684-.781-1.084-1.562-2.178-2.344-3.257a4.287,4.287,0,0,0-.781-1.03,1.023,1.023,0,0,0-1.094-.4,2.408,2.408,0,0,0-1.25.576,17.735,17.735,0,0,1-1.484,1.309c-.234.22-.234.371,0,.61,1.8,1.592,3.516,3.2,5.313,4.8C-5461.918,504.106-5461.762,504.229-5461.605,504.395Zm-3.437-.815a18.447,18.447,0,0,0-2.422-2.271c-.156-.156-.234.054-.312.156-.312.6-.7,1.221-1.016,1.87-.156.522-.391,1.045-.547,1.655A14.856,14.856,0,0,1-5465.043,503.579Z" transform="translate(-235.563 -232.634)" fill="#119651"/>
    <path id="Path_43162" data-name="Path 43162" d="M-5569.531,734.7c.7.146,1.406.273,2.031.4.781.146,1.406.264,2.188.439.234.059.391,0,.469-.215.7-1.23,1.484-2.432,2.344-3.75a8.8,8.8,0,0,0,.156,1.514c.078.928.234,1.846.313,2.764,0,.352.156.439.469.508,1.328.293,2.578.615,3.906.928a.4.4,0,0,0,.156.039c-.078.146-.156.146-.312.2-1.172.537-2.266,1.094-3.437,1.6-.391.156-.469.352-.391.7.078,1.279.234,2.549.313,3.828a.372.372,0,0,1-.078.264c-.625-.645-1.172-1.309-1.875-1.963-.312-.381-.625-.752-1.016-1.152-.156-.205-.312-.205-.547-.107l-3.516,1.465a1.641,1.641,0,0,1-.547.205c.781-1.27,1.406-2.48,2.109-3.672a.5.5,0,0,0-.078-.8c-.781-.908-1.562-1.846-2.422-2.773A1.782,1.782,0,0,1-5569.531,734.7Z" transform="translate(-150.068 -450.565)" fill="#ec2225"/>
    <path id="Path_43163" data-name="Path 43163" d="M-4606.941,738.345c-1.328-.527-2.578-1.035-3.828-1.582-.312-.117-.469-.078-.625.127-.937,1.035-1.875,2.061-2.969,3.066.078-.615.156-1.23.2-1.846.039-.8.117-1.6.2-2.4.039-.254-.078-.371-.312-.469-1.094-.518-2.266-1.045-3.4-1.572-.117-.068-.273-.127-.469-.215a.953.953,0,0,1,.508-.2c1.25-.293,2.422-.586,3.672-.85.234-.059.313-.176.313-.449.2-1.406.391-2.812.547-4.316.391.645.781,1.211,1.094,1.777.43.645.781,1.279,1.172,1.924.156.244.234.322.547.254,1.289-.283,2.578-.518,3.828-.762a.538.538,0,0,1,.391.01c-.469.537-.937,1.074-1.406,1.6a21.5,21.5,0,0,1-1.406,1.631.5.5,0,0,0-.078.557c.7,1.211,1.367,2.432,2.07,3.652Z" transform="translate(-1020.99 -446.962)" fill="#ec2225"/>
    <path id="Path_43164" data-name="Path 43164" d="M-5587.812,940.211c.156-.859.469-1.67.625-2.51a10.322,10.322,0,0,0,.469-1.406.5.5,0,0,0-.156-.7c-1.016-.732-2.031-1.5-3.047-2.256-.078-.078-.234-.166-.391-.322h1.25c1.016-.029,2.031-.059,3.047-.059a.486.486,0,0,0,.547-.4c.469-1.221.859-2.451,1.25-3.672a1.878,1.878,0,0,0,.156-.381c.313.889.625,1.709.938,2.529.156.537.313,1.064.469,1.592.078.254.156.322.469.322,1.328.01,2.656.039,3.984.068.078,0,.234.01.391.02-.859.605-1.562,1.152-2.344,1.7-.391.313-.781.645-1.172.938-.234.137-.234.264-.234.488.469,1.24.781,2.48,1.25,3.711a1.272,1.272,0,0,0,.078.488c-.781-.537-1.484-1.016-2.187-1.494-.391-.312-.859-.605-1.25-.928a.554.554,0,0,0-.781-.01c-1.016.713-1.953,1.4-2.969,2.08-.156.1-.234.215-.391.225Z" transform="translate(-131.044 -630.837)" fill="#ec2225"/>
    <path id="Path_43165" data-name="Path 43165" d="M-4581.969,935c-.586.479-1.133.889-1.68,1.289-.547.42-1.094.859-1.641,1.24-.391.225-.391.449-.234.811.313,1.133.7,2.285,1.016,3.418.078.156.078.293.156.479-.234-.02-.312-.146-.469-.244-1.016-.7-2.031-1.406-3.047-2.129a.444.444,0,0,0-.625,0c-1.172.8-2.266,1.592-3.437,2.422a1.462,1.462,0,0,1,.156-.84c.313-1.094.664-2.187,1.016-3.271a.484.484,0,0,0-.156-.557c-1.094-.752-2.07-1.523-3.047-2.295a.584.584,0,0,1-.312-.361c.547,0,1.055.01,1.563,0,.938-.01,1.836-.049,2.734-.049.273,0,.313-.156.391-.371.469-1.309.859-2.627,1.406-3.994a3.311,3.311,0,0,1,.391,1.113c.391.957.7,1.914,1.016,2.881.117.3.234.361.547.371,1.25.049,2.5.049,3.75.059C-4582.32,934.981-4582.2,934.991-4581.969,935Z" transform="translate(-1042.848 -632.707)" fill="#ec2225"/>
    <path id="Path_43166" data-name="Path 43166" d="M-4951.793,1372.679a3.754,3.754,0,0,1-1.289.7.579.579,0,0,0-.352.8c.7,2.207,1.406,4.434,2.109,6.641.039.2.234.449.039.586-.078.176-.312-.078-.508-.117-.039,0-.039-.02-.117-.039a1.62,1.62,0,0,1-1.289-1.406c-.117-.566-.352-1.133-.508-1.7a1.872,1.872,0,0,0-.391-.684,1.238,1.238,0,0,0-2.187.078c-.312.625-.664,1.27-1.016,1.895a2.165,2.165,0,0,1-3.125.977,8.442,8.442,0,0,1-.977-.645c-.117-.039-.273-.117-.2-.254a7.4,7.4,0,0,1,.664-.879c.117-.117.2.039.234.1a6.187,6.187,0,0,0,.664.547.466.466,0,0,0,.742-.137,8.894,8.894,0,0,0,.82-1.523.514.514,0,0,0-.117-.645,1.5,1.5,0,0,0-1.641-.664c-.273.059-.508.137-.82.2a2.831,2.831,0,0,1-2.109-.137c-.547-.254-1.016-.527-1.523-.82a.368.368,0,0,1,.352-.156,36.267,36.267,0,0,0,9.375-2.559,3.12,3.12,0,0,0,.82-.312A2.209,2.209,0,0,1-4951.793,1372.679Zm-2.617,3.535a16.4,16.4,0,0,0-.312-1.641c-.117-.352-.234-.352-.547-.273-1.016.332-2.109.664-3.125.977-.156.039-.234.039-.312.234.586.2,1.094.469,1.172,1.211.352-.566.625-1.074,1.328-1.094A3.5,3.5,0,0,1-4954.41,1376.214Z" transform="translate(-703.763 -1037.046)" fill="#119651"/>
    <path id="Path_43167" data-name="Path 43167" d="M-5319.781,1332.012a1.388,1.388,0,0,1,.82,1.406,9.884,9.884,0,0,0,.469,3.7,4.509,4.509,0,0,0,3.906,3.3,2.5,2.5,0,0,0,.938-.029,1.411,1.411,0,0,0,1.25-1.1,1.961,1.961,0,0,0-.82-1.758c-.234-.137-.43-.176-.469.225a1.146,1.146,0,0,1-1.445.967,3.128,3.128,0,0,1-1.719-.8,1.549,1.549,0,0,1-.391-1.66,1.392,1.392,0,0,1,1.25-1.074,4.139,4.139,0,0,1,3.594,1.514,3.657,3.657,0,0,1,.938,3.682,2.076,2.076,0,0,1-1.328,1.416,4.727,4.727,0,0,1-4.3-.479,6.164,6.164,0,0,1-2.891-4.941,26.837,26.837,0,0,1,0-3.545A5.043,5.043,0,0,0-5319.781,1332.012Z" transform="translate(-378.463 -1000.223)" fill="#109651"/>
    <path id="Path_43168" data-name="Path 43168" d="M-5277.961,463a1.889,1.889,0,0,1,1.719.923c.391.762-.039,1.426-.508,2.017a3.954,3.954,0,0,1-4.1,1.27,1.257,1.257,0,0,1-.859-1.846A3.814,3.814,0,0,1-5277.961,463Zm0,1.729a.532.532,0,0,0-.664-.62,2.044,2.044,0,0,0-1.367,1.611c0,.425.234.669.664.605A2.024,2.024,0,0,0-5277.961,464.729Z" transform="translate(-413.409 -204.703)" fill="#119651"/>
    <path id="Path_43169" data-name="Path 43169" d="M-4804.055,1348.825a2.707,2.707,0,0,1,.781.107,1.559,1.559,0,0,1,1.094,1.934,3.018,3.018,0,0,1-4.023,2.012,1.405,1.405,0,0,1-.82-1.65A3,3,0,0,1-4804.055,1348.825Zm.391,1.885c0-.645-.43-.977-.859-.762a1.993,1.993,0,0,0-.937,1.328c-.039.537.43,1,.859.742A2.721,2.721,0,0,0-4803.664,1350.71Z" transform="translate(-848.067 -1015.614)" fill="#119651"/>
    <path id="Path_43170" data-name="Path 43170" d="M-5260.57,520.9a9.929,9.929,0,0,1,1.836.059,38.56,38.56,0,0,1,6.6,1.055c.43.107.664.391.82,1.021a8.8,8.8,0,0,1-1.484-.117,54.55,54.55,0,0,0-6.133-.093c-.742.01-.82,0-1.133-.7C-5260.219,521.729-5260.375,521.329-5260.57,520.9Z" transform="translate(-432.9 -257.676)" fill="#119651"/>
    <path id="Path_43171" data-name="Path 43171" d="M-4783.234,1405.027a33.852,33.852,0,0,1,6.875.918c.391.1.781.254.859.684.156.273,0,.332-.234.313-.625-.059-1.328-.117-1.953-.156a38.641,38.641,0,0,0-4.766.117.538.538,0,0,1-.625-.391c-.2-.352-.391-.723-.625-1.074-.156-.391-.078-.43.313-.41Z" transform="translate(-869.368 -1067.053)" fill="#119651"/>
    <path id="Path_43172" data-name="Path 43172" d="M-5112.988,1489.34a1.6,1.6,0,0,1-1.367-.566.769.769,0,0,1,.117-1.074,1.737,1.737,0,0,1,2.188.176.816.816,0,0,1-.078,1.172A1.215,1.215,0,0,1-5112.988,1489.34Z" transform="translate(-566.599 -1142.464)" fill="#119651"/>
    <path id="Path_43173" data-name="Path 43173" d="M-5561.34,1066.967l-.078.039c0-.029,0-.039.078-.059Z" transform="translate(-157.495 -757.57)" fill="#ec2225"/>
    <path id="Path_43174" data-name="Path 43174" d="M-4486.184,853.547c.078.039.078.078,0,.1,0,0,0-.02-.039-.039C-4486.184,853.586-4486.184,853.566-4486.184,853.547Z" transform="translate(-1141.758 -562.217)" fill="#ec2225"/>
    <path id="Path_43175" data-name="Path 43175" d="M-5368.781,637.126c-.078.264-.312.142-.391.132a31.029,31.029,0,0,1-12.617-3.091,30.9,30.9,0,0,1-16.367-18.472,30.758,30.758,0,0,1,4.3-28.608,30.215,30.215,0,0,1,20.313-12.749,30.81,30.81,0,0,1,27.344,8.3,29.508,29.508,0,0,1,9.219,17.08,30.811,30.811,0,0,1-7.773,27.275,30.729,30.729,0,0,1-19.219,10.02c-.7.1-1.406.142-2.109.2-.039,0-.234.068-.234-.117.039-.039.2-.054.234-.107,1.406-1.143,2.852-2.266,4.258-3.433a1.914,1.914,0,0,1,1.328-.474,2.094,2.094,0,0,0,1.25-.312,4.785,4.785,0,0,0,1.719-1.348.555.555,0,0,1,.625-.234,3.653,3.653,0,0,1,.547.156,3.936,3.936,0,0,0,2.5.117,44.779,44.779,0,0,0,4.766-1.924c.391-.2.82-.459,1.25-.7a3.488,3.488,0,0,0,1.641-2.544.555.555,0,0,0-.312-.674,3.112,3.112,0,0,0-1.953-.522c-.547.054-1.172.127-1.719.186a4.5,4.5,0,0,1,.273-1.45c.039-.132.117-.269.273-.229a2.932,2.932,0,0,0,2.891-.942c1.328-1.362,2.578-2.788,3.906-4.116a1.609,1.609,0,0,0,.547-1.465,3.46,3.46,0,0,1,.078-.889c.039-.742.039-.752-.7-.928-.625-.137-1.25-.4-1.836.015-.039-.444-.117-.874-.2-1.3,0-.454.078-.508.469-.4,1.25.327,2.109.088,2.813-1.431.625-1.367,1.25-2.734,1.953-4.072a2.959,2.959,0,0,0,.469-1.968c-.117-.581-.156-1.157-.234-1.733-.078-.361-.156-.464-.547-.361a1.736,1.736,0,0,1-.547.068c-.312.02-.469-.127-.391-.459a7.816,7.816,0,0,1,.469-.664,3.081,3.081,0,0,0,.7-2.012,20.452,20.452,0,0,0-.469-4.36,9.515,9.515,0,0,0-.977-3.076,1.861,1.861,0,0,0-.82-.879c-.469-.22-.937-.415-1.406-.649-.234-.112-.352-.083-.469.137a5.341,5.341,0,0,0-.82,2.764v2.451a6.728,6.728,0,0,0-1.523-.918.328.328,0,0,0-.547.2,2.465,2.465,0,0,1-.508,1.353,1.641,1.641,0,0,0-.2,1.055,19.858,19.858,0,0,1,.547,2.085c.117.684.234,1.367.352,2.031a4.866,4.866,0,0,0,2.383,3.447.374.374,0,0,0,.547-.049c0,.029.078.049.078.073-.664.835-.937,1.831-1.562,2.778-.039-.283-.039-.508-.078-.723-.156-.576-.078-1.221-.547-1.66a7.031,7.031,0,0,0-1.758-1.26c-.352-.166-.43-.107-.43.283a2.1,2.1,0,0,1-.273,1.46,4.62,4.62,0,0,0-.742,3.423c.156,1.016.313,2.026.469,3.047a8.652,8.652,0,0,0,.742,3.584c.117.156.117.244-.039.332a3.114,3.114,0,0,0-1.133.82v-.835a2.01,2.01,0,0,0-.9-1.567c-.078-.073-.234-.161-.312-.107a2.507,2.507,0,0,0-1.875,1.543,40.24,40.24,0,0,0-1.406,4.17,10.831,10.831,0,0,0-.664,4.312c0,.122,0,.181-.117.22-.391.127-.781.254-1.172.391-.234.088-.312-.049-.234-.254a5.068,5.068,0,0,1,.469-1.294,2.27,2.27,0,0,0,.117-2.378,2.024,2.024,0,0,0-.2-.42c-.391-.84-.391-.84-1.25-.635a3.237,3.237,0,0,0-2.422,1.738c-1.094,2.2-2.227,4.4-3.125,6.7-.039.2-.156.405-.078.61a2.526,2.526,0,0,1-1.25,2.5c-1.016.7-1.8,1.592-2.891,2.207-.078-.049-.078-.176-.078-.278-.078-1.729-.156-3.457-.2-5.19-.039-3.574-.2-7.148-.273-10.723-.078-2.778-.156-5.547-.2-8.32-.039-1.514-.117-3.013-.117-4.521,0-.244,0-.41.313-.244a25.789,25.789,0,0,0,5.469,2.075,12.953,12.953,0,0,0,5.313.4,3.69,3.69,0,0,0,1.016-.254c.2-.059.43-.088.391-.312,0-.2-.234-.234-.43-.269-.7-.151-1.406-.322-2.109-.435a33.832,33.832,0,0,1-7.734-2.2,2.723,2.723,0,0,0-.43-.186.481.481,0,0,1,.547-.176,8.131,8.131,0,0,0,6.445-.967c.586-.391,1.211-.742,1.758-1.167,1.25-.942,2.461-1.919,3.672-2.886a3.8,3.8,0,0,0,.469-.459c.156-.127.313-.288.2-.439-.039-.171-.273-.039-.43,0a19.083,19.083,0,0,0-4.844,1.689,8.888,8.888,0,0,1-4.062,1.221.707.707,0,0,0-.312.186,3.057,3.057,0,0,1-.859.425c.547-.532.938-1.055,1.406-1.46a12.046,12.046,0,0,0,3.359-4.531,24.586,24.586,0,0,0,1.172-3.34.649.649,0,0,0,.078-.371.429.429,0,0,0,0-.312c-.2-.078-.234.049-.312.117a12.449,12.449,0,0,0-1.758,1.719c-.977,1.465-2.383,2.676-3.008,4.424a7.473,7.473,0,0,1-1.406,2.188,1.417,1.417,0,0,1-.312.308c-.078-.176.039-.3.078-.425a13.121,13.121,0,0,0,1.6-9.961c-.117-.469-.234-.928-.352-1.392-.078-.117-.078-.264-.234-.264s-.234.117-.312.234c-.039.151-.039.322-.078.483-.2.645-.43,1.289-.625,1.948-.469,1.909-.977,3.813-1.484,5.713a11.331,11.331,0,0,1-.9,2.456,1.481,1.481,0,0,1-.2.181c-.156-.132-.078-.317-.078-.469a45.054,45.054,0,0,0-1.367-8.237c-.273-.874-.664-1.709-.977-2.559-.078-.146-.156-.312-.312-.322s-.312.176-.352.332a15.392,15.392,0,0,0-.7,2.686,34.828,34.828,0,0,0-.508,5.332,11.188,11.188,0,0,0,.391,3.213,5.508,5.508,0,0,0,1.406,2.568c.156.215.469.532.313.791-.2.269-.625,0-.859-.137a12.521,12.521,0,0,1-1.68-1.206,11.6,11.6,0,0,0-3.281-1.89c-2.109-.83-4.219-1.689-6.289-2.627a.326.326,0,0,0-.469-.068c-.156.161-.078.371,0,.557,0,.161.156.3.234.449a13.3,13.3,0,0,0,5.469,4.678,18.393,18.393,0,0,0,2.969,1.26c.2.039.391.068.391.273a.407.407,0,0,1-.391.225,46.373,46.373,0,0,0-5,.986c-1.133.215-2.3.283-3.477.4-.273.029-.586.068-.9.127-.078.024-.273.059-.273.234a.351.351,0,0,0,.234.313c.2.078.352.156.508.205.7.181,1.367.381,2.109.527a11.916,11.916,0,0,0,7.813-.957,5.691,5.691,0,0,0,1.563-1.182c.156-.171.313-.381.547-.283.313.107.234.381.234.615v29.473a4.219,4.219,0,0,1-1.25-.723c-.859-.645-1.719-1.318-2.578-1.973a1.317,1.317,0,0,1-.508-1.03,3.074,3.074,0,0,0-.2-1.45,50.456,50.456,0,0,0-3.672-7.031,1.711,1.711,0,0,0-.82-.762,6,6,0,0,0-2.07-.527c-.156-.015-.234.02-.273.176a9.014,9.014,0,0,1-.469,1.348,1.9,1.9,0,0,0,.117,1.714,11.043,11.043,0,0,1,.469,1.011c.117.278.352.645.156.859-.078.176-.508-.083-.742-.142-.039,0-.039-.024-.117-.024-.469-.068-.625-.244-.586-.811a8.563,8.563,0,0,0-.586-2.939,40.4,40.4,0,0,0-1.8-5.107c-.312-.664-1.562-1.514-2.07-1.4-.469.117-.977,1.084-1.055,1.953,0,.068.078.146.078.21-.078.1.039.22-.156.3a2.362,2.362,0,0,0-.937-.645c-.234-.088-.273-.186-.156-.415a4.859,4.859,0,0,0,.547-1.8c.078-1.7.273-3.389.469-5.083a4.142,4.142,0,0,0-.664-2.788,2.559,2.559,0,0,1-.586-1.875c.078-.288-.117-.332-.352-.215a11.547,11.547,0,0,0-1.133.771,2.051,2.051,0,0,0-1.016,1.816,6.232,6.232,0,0,1-.234,1.123,20.515,20.515,0,0,0-1.6-2.676l.039-.068a.455.455,0,0,0,.625.02,4.736,4.736,0,0,0,2.148-3.3c.273-1.406.352-2.852.742-4.238a1.552,1.552,0,0,0-.273-1.357,1.9,1.9,0,0,1-.469-.986c-.039-.439-.234-.547-.586-.293a7.368,7.368,0,0,0-1.484.942,17.233,17.233,0,0,0-.039-2.476,5.916,5.916,0,0,0-.9-2.666c-.156-.244-.273-.337-.508-.156a4.728,4.728,0,0,1-.937.479,2.232,2.232,0,0,0-1.367,1.421,3.187,3.187,0,0,0-.312,1,25.029,25.029,0,0,0-.781,5.894,3.324,3.324,0,0,0,.938,2.368,1.168,1.168,0,0,1,.352.562c.117.322,0,.488-.352.479-.156-.01-.391-.039-.586-.073-.273-.059-.43.063-.469.347a4.946,4.946,0,0,1-.039,1.084,2.557,2.557,0,0,0,.273,2.314q1.23,2.256,2.344,4.561a2,2,0,0,0,2.617,1.123.794.794,0,0,0,.156-.039c.273-.1.469-.039.469.313a5.557,5.557,0,0,1-.2,1.357c-.7-.361-1.367,0-1.992.137-.391.083-.625.2-.469.7a1.519,1.519,0,0,1,.078.835,2.549,2.549,0,0,0,.938,2.036c.977.874,1.953,1.787,2.852,2.754a13.023,13.023,0,0,0,1.445,1.323,2.877,2.877,0,0,0,2.3.42c.2-.044.273,0,.352.19a9.038,9.038,0,0,1,.391,1.411v.02c-.234-.02-.508-.029-.742-.054a4.171,4.171,0,0,0-2.812.435.718.718,0,0,0-.43.908,4.08,4.08,0,0,0,2.109,2.588c1.172.635,2.5,1,3.672,1.519,1.641.679,3.2,1.138,4.922.308.313-.156.547-.059.859.22a3.86,3.86,0,0,0,3.281,1.509,1.133,1.133,0,0,1,.859.332C-5371.984,634.846-5370.344,635.984-5368.781,637.126Zm-1.719-43.56a.786.786,0,0,0-.273-.8,17.159,17.159,0,0,1-2.344-2.769.349.349,0,0,0-.43-.244c-.156.059-.078.259-.078.405,0,.845.078,1.685.156,2.524.078.7.156,1.4.234,2.1a.255.255,0,0,1-.078.381c-.078.068-.234-.039-.312-.1-.391-.205-.664-.41-1.016-.635-.625-.469-1.289-.947-1.953-1.416-.078-.073-.234-.176-.312-.1-.2.1-.156.259-.078.391.117.352.313.693.391,1.04a16.391,16.391,0,0,0,4.688,6.152,18.531,18.531,0,0,1,1.406,1.216c.234.186.469.537.781.337.234-.19,0-.527-.117-.776a12.268,12.268,0,0,1-.9-5.156C-5370.734,595.266-5370.578,594.417-5370.5,593.567Zm20.82-9.907c-.508-.024-.508-.024-.586.557a5.19,5.19,0,0,1-.117,1.343,1.411,1.411,0,0,0,.117,1.055c1.094,1.777,2.266,3.486,3.438,5.22a1.49,1.49,0,0,0,.781.64,1.156,1.156,0,0,0,1.016-.029c.273-.186.039-.493,0-.742a.937.937,0,0,1,.156-.908.805.805,0,0,1,.859-.02c.391.117.547.02.625-.342a1.251,1.251,0,0,0-.078-.532,5.145,5.145,0,0,0-1.016-1.616,13.759,13.759,0,0,1-1.8-2.871,2.738,2.738,0,0,0-1.523-1.4A5.538,5.538,0,0,0-5349.68,583.66Zm-41.484,9.668c.43.063.742-.19,1.133-.552.469-.562.742-1.235,1.172-1.851q1.055-1.75,2.109-3.511a1.586,1.586,0,0,0,.234-1.035,5.592,5.592,0,0,1-.234-1.787c0-.273-.156-.347-.43-.317a6.37,6.37,0,0,0-1.68.337,2.836,2.836,0,0,0-1.719,1.333,18.9,18.9,0,0,1-2.031,3.472,2.563,2.563,0,0,0-.7,1.509c-.2.586.078.85.7.659.547-.22.938.01.938.664a.962.962,0,0,1-.078.464C-5391.867,593.245-5391.828,593.328-5391.164,593.328Zm25.586-5.1a27.354,27.354,0,0,1-1.016,2.759,2.2,2.2,0,0,0-.2,1.489c.273,1.5.7,3,.9,4.546a1.778,1.778,0,0,0,.273.854,3.24,3.24,0,0,0,.273-.732c.313-.8.547-1.6.859-2.393a3.02,3.02,0,0,0,.156-1.943,5.268,5.268,0,0,1-.156-.781A12.448,12.448,0,0,0-5365.578,588.225Zm5.352,12.705a10.569,10.569,0,0,0,3.086-1.133,1.261,1.261,0,0,0,.43-.435c.586-1,1.406-1.875,2.109-2.837a8.821,8.821,0,0,0,.664-1.113.583.583,0,0,0,.039-.356c-.039-.132-.234-.044-.352,0a13.4,13.4,0,0,0-2.93,1.382,2.573,2.573,0,0,0-.7.815,17.148,17.148,0,0,1-2.109,3.14A.742.742,0,0,0-5360.227,600.93Zm-13.008-.85a1.14,1.14,0,0,0-.234-.234,11.867,11.867,0,0,1-2.187-2.891,2.769,2.769,0,0,0-.7-.918.365.365,0,0,0-.273-.205,5.992,5.992,0,0,1-2.461-1c-.078-.059-.156-.166-.312-.073-.078.1,0,.21.078.293.469.825,1.016,1.655,1.484,2.476a3.005,3.005,0,0,0,.781.869A26.6,26.6,0,0,0-5373.234,600.081Zm14.609-10-.078-.02c-.586.664-1.094,1.362-1.758,1.982a1.982,1.982,0,0,0-.664,1.68,19.378,19.378,0,0,1,.2,2.681c.508-.64,1.055-1.2,1.523-1.753.078-.049.078-.122.117-.186C-5359.055,593.005-5358.859,591.545-5358.625,590.081Z" transform="translate(-305.352 -306.169)" fill="#0e9652"/>
    <path id="Path_43176" data-name="Path 43176" d="M-5361.215,812.362a27.931,27.931,0,0,1,1.641,2.676c.078-.391.078-.771.156-1.133a2.182,2.182,0,0,1,1.055-1.807c.43-.254.742-.566,1.172-.781.234-.107.352-.059.273.215a2.769,2.769,0,0,0,.625,1.885,4.1,4.1,0,0,1,.625,2.783c-.117,1.7-.352,3.379-.391,5.078a5.089,5.089,0,0,1-.625,1.816c-.039.215-.039.322.2.41a3.091,3.091,0,0,1,.977.645c.156-.078.078-.2.078-.293v-.215c0-.869.547-1.836,1.016-1.953.508-.117,1.719.742,2.031,1.4q1.055,2.5,1.875,5.107a8.5,8.5,0,0,1,.547,2.93c-.078.576.156.742.625.82,0,0,.078.01.078.02.273.059.625.313.742.137.234-.215,0-.576-.117-.85a11.372,11.372,0,0,0-.547-1.016,2.013,2.013,0,0,1-.078-1.709c.156-.449.313-.889.508-1.348,0-.156.117-.186.234-.176a6.441,6.441,0,0,1,2.109.527,2.111,2.111,0,0,1,.82.762,65.482,65.482,0,0,1,3.633,7.031,3.112,3.112,0,0,1,.234,1.455,1.163,1.163,0,0,0,.469,1.025c.9.654,1.68,1.328,2.578,1.973a3.6,3.6,0,0,0,1.211.723,5.108,5.108,0,0,1,0,1.543c-1.562-1.133-3.125-2.266-4.727-3.486a1.131,1.131,0,0,0-.9-.332,4.058,4.058,0,0,1-3.281-1.5.588.588,0,0,0-.781-.225,5.649,5.649,0,0,1-4.922-.312c-1.25-.518-2.539-.889-3.711-1.5a3.918,3.918,0,0,1-2.109-2.6.8.8,0,0,1,.43-.908,4.182,4.182,0,0,1,2.852-.43c.234.02.469.029.7.049,0,.02.039.039.039.049s.078-.01.078-.029l-.117-.039a6.141,6.141,0,0,0-.43-1.406c-.039-.2-.078-.234-.312-.2a2.849,2.849,0,0,1-2.3-.42,12.97,12.97,0,0,1-1.445-1.318c-.9-.967-1.875-1.885-2.812-2.764a2.224,2.224,0,0,1-.937-2.031,1.526,1.526,0,0,0-.156-.83c-.156-.5.078-.615.469-.7.7-.137,1.367-.5,2.07-.137.039-.469.117-.908.117-1.357,0-.352-.117-.42-.391-.322l-.156.039a1.941,1.941,0,0,1-2.617-1.113c-.82-1.523-1.6-3.047-2.383-4.57a2.329,2.329,0,0,1-.234-2.314,9.435,9.435,0,0,0,.039-1.074c0-.283.117-.41.43-.352a2.724,2.724,0,0,0,.625.068c.352.02.469-.146.352-.469a1.706,1.706,0,0,0-.43-.557,2.968,2.968,0,0,1-.859-2.373,21.376,21.376,0,0,1,.7-5.889q.176-.513.352-1a2.228,2.228,0,0,1,1.367-1.426,6.074,6.074,0,0,0,.938-.479c.273-.176.391-.078.508.156a5.092,5.092,0,0,1,.9,2.656c.078.8.078,1.6.078,2.48a6.657,6.657,0,0,1,1.406-.937c.391-.254.547-.156.625.293a1.933,1.933,0,0,0,.469.986,1.686,1.686,0,0,1,.273,1.357c-.43,1.387-.43,2.832-.742,4.238a4.925,4.925,0,0,1-2.109,3.3c-.234.137-.43.176-.625-.02a.454.454,0,0,0-.312-.176A1.129,1.129,0,0,0-5361.215,812.362Zm-.547-3.857a4.713,4.713,0,0,1-.117-.713c0-.107,0-.225-.117-.234s-.156.078-.234.176a2.265,2.265,0,0,1-.469.791c-.586.625-.156,1.25.313,1.6.234.186.391.117.391-.166A6.117,6.117,0,0,0-5361.762,808.5Z" transform="translate(-336.71 -511.086)" fill="#f5ed22"/>
    <path id="Path_43177" data-name="Path 43177" d="M-5003.043,831.186a26.736,26.736,0,0,0,2.891-2.2,2.427,2.427,0,0,0,1.25-2.52c-.078-.2.039-.41.078-.605.938-2.295,2.031-4.492,3.125-6.689a3.226,3.226,0,0,1,2.422-1.748c.938-.205.938-.205,1.25.635a2.024,2.024,0,0,1,.2.42,2.261,2.261,0,0,1-.117,2.373,5.036,5.036,0,0,0-.469,1.3c0,.205,0,.342.234.254.391-.137.82-.264,1.172-.391.117-.039.156-.1.117-.225a10.177,10.177,0,0,1,.7-4.307,32.361,32.361,0,0,1,1.367-4.16,2.52,2.52,0,0,1,1.875-1.562c.156-.049.234.049.313.117a2,2,0,0,1,.9,1.563v.84a3.478,3.478,0,0,1,1.133-.82c.156-.088.156-.176.078-.332a8.107,8.107,0,0,1-.781-3.594c-.078-1.016-.312-2.021-.43-3.047a4.435,4.435,0,0,1,.7-3.418,2.078,2.078,0,0,0,.273-1.455c0-.391.078-.459.43-.283a6.12,6.12,0,0,1,1.758,1.26c.469.439.391,1.084.547,1.66a3.883,3.883,0,0,1,.078.713c.625-.937.938-1.934,1.563-2.764.078-.049.156-.107.156-.186,0-.039.078-.059.078-.088l.039-.029v.039c-.117-.02-.117,0-.117.078-.117-.059-.156.059-.234.117-.156.176-.312.166-.547.049a4.981,4.981,0,0,1-2.344-3.447c-.156-.684-.273-1.357-.391-2.041a19.943,19.943,0,0,0-.547-2.09,1.647,1.647,0,0,1,.2-1.055,3.325,3.325,0,0,0,.586-1.357c0-.322.313-.3.469-.176a6.354,6.354,0,0,1,1.523.908v-2.451a5.368,5.368,0,0,1,.82-2.764c.117-.215.234-.254.469-.137q.7.337,1.406.645a1.839,1.839,0,0,1,.82.879,9.645,9.645,0,0,1,.977,3.086,20.373,20.373,0,0,1,.469,4.355,2.716,2.716,0,0,1-.7,2.012,2.1,2.1,0,0,0-.391.674c-.117.322,0,.469.352.449a2.015,2.015,0,0,0,.508-.059c.391-.107.547,0,.547.352a13.1,13.1,0,0,0,.313,1.729,3.292,3.292,0,0,1-.547,1.973c-.7,1.338-1.328,2.705-1.953,4.082-.7,1.5-1.484,1.748-2.812,1.426-.391-.117-.469-.059-.469.391.078.43.156.85.2,1.3.586-.41,1.211-.156,1.875,0,.7.166.7.176.664.928a1.677,1.677,0,0,0,0,.879,2.2,2.2,0,0,1-.547,1.475c-1.406,1.309-2.656,2.744-3.984,4.1a2.919,2.919,0,0,1-2.891.957c-.156-.059-.234.1-.273.215a4.583,4.583,0,0,0-.273,1.465c.547-.068,1.172-.137,1.719-.186a3.132,3.132,0,0,1,1.953.508.563.563,0,0,1,.313.674,3.462,3.462,0,0,1-1.641,2.539,7.875,7.875,0,0,1-1.25.7,36.819,36.819,0,0,1-4.766,1.934,4.086,4.086,0,0,1-2.5-.117,3.653,3.653,0,0,0-.547-.156.554.554,0,0,0-.625.244,5.38,5.38,0,0,1-1.641,1.338,2.341,2.341,0,0,1-1.289.313,1.965,1.965,0,0,0-1.367.469c-1.406,1.172-2.812,2.3-4.258,3.438a.376.376,0,0,1-.234.1v-.117C-5003.043,832.1-5003.121,831.635-5003.043,831.186Zm23.164-33a4.327,4.327,0,0,0,.2,1.582c.039.137.039.283.273.244.469-.107.9-.967.586-1.377a11.919,11.919,0,0,1-.781-1.152.125.125,0,0,0-.156-.117c-.117.029-.117.117-.117.2Z" transform="translate(-668.609 -501.766)" fill="#f5ed22"/>
    <path id="Path_43178" data-name="Path 43178" d="M-5003.633,1300.941a8.316,8.316,0,0,0-.078,1.4,11.952,11.952,0,0,1-.078-1.67C-5003.789,1300.766-5003.789,1300.9-5003.633,1300.941Z" transform="translate(-667.961 -971.53)" fill="#f2ec23"/>
    <path id="Path_43179" data-name="Path 43179" d="M-5256.949,1325.87a2.946,2.946,0,0,1,1.719-.01,10.016,10.016,0,0,1,4.492,2.1,3.362,3.362,0,0,1,1.211,2.051.656.656,0,0,1,.078.371c-.078.7-.156.781-.859.547-.43-.137-.859-.293-1.25-.439-.234-.068-.312-.205-.312-.469a1.674,1.674,0,0,0-.937-1.963c-.937-.508-1.875-.908-2.812-1.377A8.811,8.811,0,0,1-5256.949,1325.87Z" transform="translate(-436.213 -994.47)" fill="#f2ec23"/>
    <path id="Path_43180" data-name="Path 43180" d="M-5097.477,1427.217a9.86,9.86,0,0,1,2.109-1.289c.625-.352.625-.352.078-.859-.391-.332-.7-.664-1.133-1.055a8.768,8.768,0,0,1,1.641.117c.977.137.977.156.938,1.191l-.352,3.691a1.488,1.488,0,0,0-.117.391A9.016,9.016,0,0,0-5097.477,1427.217Z" transform="translate(-582.198 -1084.438)" fill="#f2ec23"/>
    <path id="Path_43181" data-name="Path 43181" d="M-4706,1282.023a2.626,2.626,0,0,0-1.641-.537.456.456,0,0,1,.313-.41c.7-.684,1.406-1.328,2.109-1.992.234-.215.391-.254.625-.02.313.313.625.566.938.859.078.078.234.137.117.273-.039.117-.2.039-.273.02a2.118,2.118,0,0,0-1.406.254,1.086,1.086,0,0,0-.664,1.084A1.258,1.258,0,0,1-4706,1282.023Z" transform="translate(-939.061 -951.599)" fill="#f2ec23"/>
    <path id="Path_43182" data-name="Path 43182" d="M-5391.5,587.366a14.1,14.1,0,0,0-4.258,1.411,7.416,7.416,0,0,1,.586-1.66c.313-.645.586-1.27.938-1.865.078-.107.117-.317.352-.166A17.965,17.965,0,0,1-5391.5,587.366Z" transform="translate(-309.145 -316.415)" fill="#f2ec23"/>
    <path id="Path_43183" data-name="Path 43183" d="M-4889.516,1397.944a3.328,3.328,0,0,0-1.8-.586c-.7.02-.977.527-1.328,1.074-.078-.742-.586-1.016-1.172-1.172.078-.215.156-.215.313-.254,1.016-.332,2.109-.645,3.125-.977.313-.1.43-.059.547.254A16.835,16.835,0,0,1-4889.516,1397.944Z" transform="translate(-768.636 -1058.774)" fill="#f2ec23"/>
    <path id="Path_43184" data-name="Path 43184" d="M-5257.625,476.595a2.146,2.146,0,0,1-1.406,1.6c-.352.063-.625-.181-.625-.61a1.971,1.971,0,0,1,1.406-1.606C-5257.859,475.916-5257.625,476.16-5257.625,476.595Z" transform="translate(-433.737 -216.571)" fill="#f2ec23"/>
    <path id="Path_43185" data-name="Path 43185" d="M-4786.2,1362.149a2.7,2.7,0,0,1-.937,1.3c-.43.244-.9-.205-.82-.752a1.759,1.759,0,0,1,.938-1.309C-4786.633,1361.163-4786.2,1361.515-4786.2,1362.149Z" transform="translate(-865.528 -1027.041)" fill="#f2ec23"/>
    <path id="Path_43186" data-name="Path 43186" d="M-5123.082,765.692a18.8,18.8,0,0,0-.273,2.559,11.717,11.717,0,0,0,.938,5.156c.039.254.313.586.039.771-.273.205-.508-.156-.7-.342-.469-.4-.937-.82-1.406-1.211a14.643,14.643,0,0,1-4.687-6.152c-.2-.352-.273-.693-.469-1.045a.427.427,0,0,1,.039-.381c.156-.078.234.02.391.1.625.469,1.25.947,1.914,1.406.352.225.7.43.977.635.156.068.234.176.391.107.156-.088.078-.244.078-.381-.078-.7-.156-1.4-.273-2.1-.039-.84-.2-1.68-.2-2.52,0-.156,0-.352.2-.41.2-.078.273.107.352.244a19.877,19.877,0,0,0,2.422,2.764A.989.989,0,0,1-5123.082,765.692Z" transform="translate(-552.729 -478.292)" fill="#fbfcfb"/>
    <path id="Path_43187" data-name="Path 43187" d="M-4814.406,689.9a5.474,5.474,0,0,1,1.875.361,2.965,2.965,0,0,1,1.563,1.387,13.634,13.634,0,0,0,1.8,2.871,5.988,5.988,0,0,1,1.016,1.621,1.244,1.244,0,0,1,.039.537c-.039.361-.234.459-.586.342-.312-.1-.586-.215-.82.01a.983.983,0,0,0-.234.918c.039.244.273.557.039.732a1.125,1.125,0,0,1-1.016.039,1.5,1.5,0,0,1-.781-.645c-1.172-1.738-2.344-3.437-3.4-5.215a1.294,1.294,0,0,1-.2-1.064,5.214,5.214,0,0,0,.2-1.338C-4814.914,689.88-4814.914,689.88-4814.406,689.9Z" transform="translate(-840.652 -412.407)" fill="#f4ed22"/>
    <path id="Path_43188" data-name="Path 43188" d="M-5320.844,706.222c-.547,0-.625-.078-.547-.605a1.9,1.9,0,0,0,.039-.469c0-.654-.273-.879-.937-.664-.508.2-.82-.068-.7-.664a3.5,3.5,0,0,1,.7-1.5,15.605,15.605,0,0,0,2.109-3.467,2.5,2.5,0,0,1,1.641-1.338,7.437,7.437,0,0,1,1.758-.332c.234-.029.352.039.352.3a5.616,5.616,0,0,0,.234,1.8,1.263,1.263,0,0,1-.234,1.045c-.7,1.172-1.406,2.344-2.109,3.5-.43.625-.7,1.3-1.172,1.855A1.206,1.206,0,0,1-5320.844,706.222Z" transform="translate(-375.734 -419.07)" fill="#f4ed22"/>
    <path id="Path_43189" data-name="Path 43189" d="M-5007.953,743.935a13.653,13.653,0,0,1,1.094,3.8,5.954,5.954,0,0,0,.156.791,3.622,3.622,0,0,1-.156,1.934c-.312.791-.547,1.6-.859,2.4a6.717,6.717,0,0,1-.273.723,1.439,1.439,0,0,1-.273-.85c-.2-1.553-.625-3.037-.9-4.551a2.157,2.157,0,0,1,.117-1.484A16.282,16.282,0,0,0-5007.953,743.935Z" transform="translate(-662.97 -461.878)" fill="#fafcfa"/>
    <path id="Path_43190" data-name="Path 43190" d="M-4930.969,829.8c-.078-.273.117-.4.234-.537a19.221,19.221,0,0,0,2.109-3.145,1.945,1.945,0,0,1,.7-.811,14.024,14.024,0,0,1,2.891-1.387c.156-.039.273-.117.391.01.078.1,0,.244-.078.361a5.63,5.63,0,0,1-.625,1.113c-.7.957-1.523,1.836-2.187,2.832-.039.166-.234.332-.312.43A10.526,10.526,0,0,1-4930.969,829.8Z" transform="translate(-734.611 -535.045)" fill="#fafcfa"/>
    <path id="Path_43191" data-name="Path 43191" d="M-5151.66,826.145a24.36,24.36,0,0,1-3.75-1.68,2.34,2.34,0,0,1-.859-.859c-.469-.82-.937-1.65-1.484-2.48,0-.088-.156-.186-.039-.293s.234.02.273.078a6.274,6.274,0,0,0,2.5.986.513.513,0,0,1,.273.205,4.582,4.582,0,0,1,.7.918,10.5,10.5,0,0,0,2.227,2.9C-5151.816,825.959-5151.738,826.018-5151.66,826.145Z" transform="translate(-526.943 -532.234)" fill="#fafcfa"/>
    <path id="Path_43192" data-name="Path 43192" d="M-4938.7,765.686c-.234,1.465-.469,2.92-.7,4.375,0,.068-.039.137-.039.2-.508.547-.977,1.113-1.6,1.748-.039-.957-.039-1.826-.078-2.686a1.9,1.9,0,0,1,.547-1.68c.664-.615,1.172-1.309,1.8-1.973Z" transform="translate(-725.311 -481.77)" fill="#fafcfa"/>
    <path id="Path_43193" data-name="Path 43193" d="M-5333.039,915.276a8.992,8.992,0,0,1-.2,1.455c-.039.283-.234.352-.469.176a1.041,1.041,0,0,1-.234-1.611,1.7,1.7,0,0,0,.469-.791c.078-.088.156-.186.234-.176a.264.264,0,0,1,.156.234C-5333.078,914.8-5333.039,915.042-5333.039,915.276Z" transform="translate(-365.472 -617.857)" fill="#119651"/>
    <path id="Path_43194" data-name="Path 43194" d="M-5316.191,968.574c-.078-.068-.156-.146-.273-.244.2-.01.234.1.352.166C-5316.191,968.516-5316.191,968.545-5316.191,968.574Z" transform="translate(-381.733 -667.295)" fill="#0e9652"/>
    <path id="Path_43195" data-name="Path 43195" d="M-5227.051,1188.9l.117.049v.02a.137.137,0,0,1-.117-.059Z" transform="translate(-463.585 -869.211)" fill="#0e9652"/>
    <path id="Path_43196" data-name="Path 43196" d="M-4729.164,904.868v-.625c0-.078,0-.176.078-.2.156-.039.2.039.2.117.234.42.508.762.742,1.143a1.024,1.024,0,0,1-.547,1.377c-.234.049-.234-.107-.312-.234A5.381,5.381,0,0,1-4729.164,904.868Z" transform="translate(-919.347 -608.437)" fill="#119651"/>
    <path id="Path_43197" data-name="Path 43197" d="M-4735.4,958.876c0,.088-.078.137-.156.176a.06.06,0,0,1-.039-.068c.039-.049.039-.166.2-.107Z" transform="translate(-913.477 -658.624)" fill="#0e9652"/>
    <path id="Path_43198" data-name="Path 43198" d="M-4731.942,957.734v0Z" transform="translate(-916.817 -657.562)" fill="#0e9652"/>
    <path id="Path_43199" data-name="Path 43199" d="M-4733.027,958.127c0-.078,0-.088.039-.078h0c0,.02-.039.049-.039.078Z" transform="translate(-915.827 -657.883)" fill="#0e9652"/>
  </g>
</svg>
