<svg id="Group_50304" data-name="Group 50304" xmlns="http://www.w3.org/2000/svg" width="18.946" height="18.947" viewBox="0 0 18.946 18.947">
  <path id="Path_359" data-name="Path 359" d="M830.526,1069.895a6.631,6.631,0,0,1,6.631,6.631h1.895a8.526,8.526,0,0,0-8.526-8.526Zm-6.631,6.631a6.631,6.631,0,0,1,6.631-6.631V1068a8.526,8.526,0,0,0-8.526,8.526Zm6.631,6.631a6.631,6.631,0,0,1-6.631-6.631H822a8.525,8.525,0,0,0,8.526,8.526Zm6.631-6.631a6.631,6.631,0,0,1-6.631,6.631v1.895a8.525,8.525,0,0,0,8.526-8.526Z" transform="translate(-822 -1068)" fill="#9e9e99"/>
  <path id="Path_360" data-name="Path 360" d="M841.388,1086.048l-4.121-4.121-1.339,1.339,4.121,4.121Zm-4.121-4.121a.947.947,0,0,0-1.339,1.339Zm2.781,5.46a.947.947,0,0,0,1.339-1.339Z" transform="translate(-822.719 -1068.719)" fill="#9e9e99"/>
</svg>
